<svg width="10" height="15" viewBox="0 0 10 15" fill="none" xmlns="http://www.w3.org/2000/svg">
<path d="M1.23414 7.52645C1.25806 7.59624 1.29787 7.6618 1.35355 7.71748L1.3569 7.7208L7.7175 14.0814C7.91276 14.2767 8.22934 14.2767 8.42461 14.0814C8.61987 13.8861 8.61987 13.5696 8.42461 13.3743L2.41423 7.36392L8.42462 1.35352C8.61988 1.15826 8.61988 0.841678 8.42462 0.646416C8.22936 0.451154 7.91278 0.451154 7.71752 0.646416L1.35831 7.00562C1.35671 7.00718 1.35512 7.00875 1.35354 7.01033C1.21395 7.14992 1.17415 7.35151 1.23414 7.52645Z" fill="#8E97AC"/>
<path d="M1.35355 7.71748L0.999997 8.07104L1.00164 8.07266L1.35355 7.71748ZM1.23414 7.52645L1.70712 7.36432L1.70711 7.36427L1.23414 7.52645ZM1.3569 7.7208L1.71046 7.36724L1.70882 7.36562L1.3569 7.7208ZM7.7175 14.0814L8.07105 13.7278L7.7175 14.0814ZM8.42461 14.0814L8.77816 14.435H8.77816L8.42461 14.0814ZM8.42461 13.3743L8.77816 13.0207L8.42461 13.3743ZM2.41423 7.36392L2.06068 7.01036L1.70712 7.36392L2.06068 7.71747L2.41423 7.36392ZM8.42462 1.35352L8.77818 1.70708L8.42462 1.35352ZM8.42462 0.646416L8.07107 0.999969L8.07107 0.99997L8.42462 0.646416ZM7.71752 0.646416L8.07107 0.999969L7.71752 0.646416ZM1.35831 7.00562L1.70722 7.36382L1.71187 7.35917L1.35831 7.00562ZM1.35354 7.01033L1.70709 7.36388L1.7071 7.36388L1.35354 7.01033ZM1.70711 7.36393L1.70712 7.36432L0.761156 7.68858C0.809243 7.82887 0.889269 7.96031 1 8.07104L1.70711 7.36393ZM1.70882 7.36562L1.70547 7.3623L1.00164 8.07266L1.00498 8.07598L1.70882 7.36562ZM8.07105 13.7278L1.71045 7.36724L1.00335 8.07435L7.36395 14.435L8.07105 13.7278ZM8.07105 13.7278H8.07105L7.36395 14.435C7.75447 14.8255 8.38764 14.8255 8.77816 14.435L8.07105 13.7278ZM8.07105 13.7278V13.7278L8.77816 14.435C9.16868 14.0444 9.16868 13.4113 8.77816 13.0207L8.07105 13.7278ZM2.06068 7.71747L8.07105 13.7278L8.77816 13.0207L2.76778 7.01036L2.06068 7.71747ZM8.07107 0.999969L2.06068 7.01036L2.76778 7.71747L8.77818 1.70708L8.07107 0.999969ZM8.07107 0.99997V0.999969L8.77818 1.70708C9.1687 1.31655 9.1687 0.683387 8.77818 0.292862L8.07107 0.99997ZM8.07107 0.999969L8.07107 0.999969L8.77818 0.292863C8.38765 -0.0976619 7.75449 -0.0976613 7.36396 0.292863L8.07107 0.999969ZM1.71187 7.35917L8.07107 0.999969L7.36396 0.292863L1.00476 6.65207L1.71187 7.35917ZM1.7071 7.36388C1.70713 7.36384 1.70716 7.36382 1.70719 7.36379L1.00944 6.64745C1.00627 6.65054 1.00311 6.65365 0.999977 6.65679L1.7071 7.36388ZM1.70711 7.36427L1.70709 7.36388L0.999986 6.65678C0.720286 6.93648 0.641628 7.34 0.761172 7.68863L1.70711 7.36427Z" fill="#8E97AC"/>
</svg>
