<svg width="48" height="48" viewBox="0 0 48 48" fill="none"
    xmlns="http://www.w3.org/2000/svg">
    <path d="M43.86 13.52L37.12 40.5801C36.64 42.6001 34.84 44 32.76 44H6.47995C3.45995 44 1.29999 41.0399 2.19999 38.1399L10.62 11.1001C11.2 9.2201 12.94 7.91992 14.9 7.91992H39.5C41.4 7.91992 42.98 9.07993 43.64 10.6799C44.02 11.5399 44.1 12.52 43.86 13.52Z" stroke="#005596" stroke-width="3.5" stroke-miterlimit="10"/>
    <path d="M32 44H41.56C44.14 44 46.16 41.82 45.98 39.24L44 12" stroke="#005596" stroke-width="3.5" stroke-miterlimit="10" stroke-linecap="round" stroke-linejoin="round"/>
    <path d="M19.36 12.76L21.44 4.12012" stroke="#005596" stroke-width="3.5" stroke-miterlimit="10" stroke-linecap="round" stroke-linejoin="round"/>
    <path d="M32.76 12.78L34.64 4.1001" stroke="#005596" stroke-width="3.5" stroke-miterlimit="10" stroke-linecap="round" stroke-linejoin="round"/>
    <path d="M15.4 24H31.4" stroke="#005596" stroke-width="3.5" stroke-miterlimit="10" stroke-linecap="round" stroke-linejoin="round"/>
    <path d="M13.4 32H29.4" stroke="#005596" stroke-width="3.5" stroke-miterlimit="10" stroke-linecap="round" stroke-linejoin="round"/>
</svg>
