<svg width="48" height="48" viewBox="0 0 48 48" fill="none" xmlns="http://www.w3.org/2000/svg">
<path d="M21.5032 33.7207V37.7808C21.5032 41.2208 18.3032 44.0007 14.3632 44.0007C10.4232 44.0007 7.20312 41.2208 7.20312 37.7808V33.7207C7.20312 37.1607 10.4032 39.6007 14.3632 39.6007C18.3032 39.6007 21.5032 37.1407 21.5032 33.7207Z" stroke="#005596" stroke-width="3.5" stroke-linecap="round" stroke-linejoin="round"/>
<path d="M21.5 28.22C21.5 29.22 21.22 30.1399 20.74 30.9399C19.56 32.8799 17.14 34.1 14.34 34.1C11.54 34.1 9.11994 32.8599 7.93994 30.9399C7.45994 30.1399 7.18005 29.22 7.18005 28.22C7.18005 26.5 7.98001 24.96 9.26001 23.84C10.56 22.7 12.3399 22.02 14.3199 22.02C16.2999 22.02 18.08 22.72 19.38 23.84C20.7 24.94 21.5 26.5 21.5 28.22Z" stroke="#005596" stroke-width="3.5" stroke-linecap="round" stroke-linejoin="round"/>
<path d="M21.5032 28.22V33.72C21.5032 37.16 18.3032 39.6 14.3632 39.6C10.4232 39.6 7.20312 37.14 7.20312 33.72V28.22C7.20312 24.78 10.4032 22 14.3632 22C16.3432 22 18.1232 22.6999 19.4232 23.8199C20.7032 24.9399 21.5032 26.5 21.5032 28.22Z" stroke="#005596" stroke-width="3.5" stroke-linecap="round" stroke-linejoin="round"/>
<path d="M44.0001 21.9399V26.0601C44.0001 27.1601 43.1201 28.06 42.0001 28.1H38.08C35.92 28.1 33.9401 26.52 33.7601 24.36C33.6401 23.1 34.12 21.92 34.96 21.1C35.7 20.34 36.72 19.9 37.84 19.9H42.0001C43.1201 19.94 44.0001 20.8399 44.0001 21.9399Z" stroke="#005596" stroke-width="3.5" stroke-linecap="round" stroke-linejoin="round"/>
<path d="M4 21V17C4 11.56 7.28 7.76 12.38 7.12C12.9 7.04 13.44 7 14 7H32C32.52 7 33.02 7.01998 33.5 7.09998C38.66 7.69998 42 11.52 42 17V19.9H37.84C36.72 19.9 35.7 20.34 34.96 21.1C34.12 21.92 33.64 23.1 33.76 24.36C33.94 26.52 35.92 28.1 38.08 28.1H42V31C42 37 38 41 32 41H27" stroke="#005596" stroke-width="3.5" stroke-linecap="round" stroke-linejoin="round"/>
</svg>
