<svg width="691" height="408" viewBox="0 0 691 408" fill="none" xmlns="http://www.w3.org/2000/svg">
<rect width="691" height="408" fill="#005596"/>
<path d="M119.91 284.73H115.938V281.936H119.102C120.027 281.936 120.777 281.795 121.352 281.514C121.926 281.221 122.348 280.811 122.617 280.283C122.887 279.756 123.021 279.135 123.021 278.42C123.021 277.834 122.869 277.295 122.564 276.803C122.271 276.311 121.814 275.918 121.193 275.625C120.572 275.32 119.781 275.168 118.82 275.168C118.094 275.168 117.432 275.297 116.834 275.555C116.236 275.812 115.762 276.176 115.41 276.645C115.059 277.102 114.883 277.658 114.883 278.314H109.627C109.627 277.189 109.867 276.182 110.348 275.291C110.84 274.389 111.508 273.627 112.352 273.006C113.207 272.373 114.191 271.893 115.305 271.564C116.418 271.236 117.59 271.072 118.82 271.072C120.262 271.072 121.562 271.23 122.723 271.547C123.883 271.852 124.879 272.309 125.711 272.918C126.543 273.527 127.182 274.283 127.627 275.186C128.072 276.088 128.295 277.137 128.295 278.332C128.295 279.211 128.096 280.037 127.697 280.811C127.299 281.584 126.73 282.264 125.992 282.85C125.254 283.436 124.369 283.898 123.338 284.238C122.307 284.566 121.164 284.73 119.91 284.73ZM115.938 283.201H119.91C121.305 283.201 122.541 283.348 123.619 283.641C124.709 283.934 125.629 284.361 126.379 284.924C127.141 285.486 127.715 286.184 128.102 287.016C128.5 287.836 128.699 288.779 128.699 289.846C128.699 291.041 128.453 292.102 127.961 293.027C127.48 293.953 126.795 294.738 125.904 295.383C125.025 296.027 123.982 296.514 122.775 296.842C121.58 297.17 120.262 297.334 118.82 297.334C117.672 297.334 116.529 297.193 115.393 296.912C114.256 296.619 113.225 296.174 112.299 295.576C111.373 294.979 110.635 294.211 110.084 293.273C109.533 292.336 109.258 291.211 109.258 289.898H114.549C114.549 290.52 114.73 291.088 115.094 291.604C115.457 292.107 115.961 292.512 116.605 292.816C117.25 293.109 117.988 293.256 118.82 293.256C119.793 293.256 120.619 293.104 121.299 292.799C121.99 292.494 122.512 292.078 122.863 291.551C123.227 291.012 123.408 290.42 123.408 289.775C123.408 289.084 123.314 288.498 123.127 288.018C122.939 287.537 122.664 287.145 122.301 286.84C121.938 286.523 121.486 286.295 120.947 286.154C120.42 286.014 119.805 285.943 119.102 285.943H115.938V283.201ZM152.904 292.887V297H134.465V292.887H152.904ZM136.029 292.887V303.275H131.072L130.791 292.887H136.029ZM156.701 292.887L156.244 303.293H151.41V292.887H156.701ZM150.004 271.406V275.537H137.682V271.406H150.004ZM153.766 271.406V297H148.51V271.406H153.766ZM137.031 271.406H142.305L141.619 281.83C141.514 283.553 141.326 285.076 141.057 286.4C140.799 287.713 140.482 288.867 140.107 289.863C139.744 290.859 139.34 291.732 138.895 292.482C138.449 293.221 137.98 293.865 137.488 294.416C136.996 294.955 136.498 295.436 135.994 295.857C135.49 296.268 134.998 296.648 134.518 297H131.494V292.887H132.672C133.012 292.605 133.369 292.219 133.744 291.727C134.131 291.234 134.494 290.572 134.834 289.74C135.186 288.896 135.49 287.83 135.748 286.541C136.018 285.252 136.217 283.682 136.346 281.83L137.031 271.406ZM176.6 292.887V297H162.977V292.887H176.6ZM164.699 271.406V297H159.426V271.406H164.699ZM174.824 281.83V285.838H162.977V281.83H174.824ZM176.582 271.406V275.537H162.977V271.406H176.582ZM194.512 288.51H199.768C199.662 290.232 199.188 291.762 198.344 293.098C197.512 294.434 196.346 295.477 194.846 296.227C193.357 296.977 191.564 297.352 189.467 297.352C187.826 297.352 186.355 297.07 185.055 296.508C183.754 295.934 182.641 295.113 181.715 294.047C180.801 292.98 180.104 291.691 179.623 290.18C179.143 288.668 178.902 286.975 178.902 285.1V283.324C178.902 281.449 179.148 279.756 179.641 278.244C180.145 276.721 180.859 275.426 181.785 274.359C182.723 273.293 183.842 272.473 185.143 271.898C186.443 271.324 187.896 271.037 189.502 271.037C191.635 271.037 193.434 271.424 194.898 272.197C196.375 272.971 197.518 274.037 198.326 275.396C199.146 276.756 199.639 278.303 199.803 280.037H194.529C194.471 279.006 194.266 278.133 193.914 277.418C193.562 276.691 193.029 276.146 192.314 275.783C191.611 275.408 190.674 275.221 189.502 275.221C188.623 275.221 187.855 275.385 187.199 275.713C186.543 276.041 185.992 276.539 185.547 277.207C185.102 277.875 184.768 278.719 184.545 279.738C184.334 280.746 184.229 281.93 184.229 283.289V285.1C184.229 286.424 184.328 287.59 184.527 288.598C184.727 289.594 185.031 290.438 185.441 291.129C185.863 291.809 186.402 292.324 187.059 292.676C187.727 293.016 188.529 293.186 189.467 293.186C190.568 293.186 191.477 293.01 192.191 292.658C192.906 292.307 193.451 291.785 193.826 291.094C194.213 290.402 194.441 289.541 194.512 288.51ZM206.641 280.74H212.617C214.633 280.74 216.367 281.074 217.82 281.742C219.273 282.41 220.393 283.348 221.178 284.555C221.963 285.762 222.355 287.168 222.355 288.773C222.355 289.992 222.133 291.105 221.688 292.113C221.242 293.109 220.592 293.977 219.736 294.715C218.893 295.441 217.873 296.004 216.678 296.402C215.482 296.801 214.129 297 212.617 297H203.195V271.406H208.486V292.887H212.617C213.625 292.887 214.457 292.699 215.113 292.324C215.77 291.949 216.262 291.451 216.59 290.83C216.93 290.197 217.1 289.5 217.1 288.738C217.1 288.012 216.93 287.355 216.59 286.77C216.262 286.172 215.77 285.703 215.113 285.363C214.457 285.023 213.625 284.854 212.617 284.854H206.641V280.74ZM249.531 288.51H254.787C254.682 290.232 254.207 291.762 253.363 293.098C252.531 294.434 251.365 295.477 249.865 296.227C248.377 296.977 246.584 297.352 244.486 297.352C242.846 297.352 241.375 297.07 240.074 296.508C238.773 295.934 237.66 295.113 236.734 294.047C235.82 292.98 235.123 291.691 234.643 290.18C234.162 288.668 233.922 286.975 233.922 285.1V283.324C233.922 281.449 234.168 279.756 234.66 278.244C235.164 276.721 235.879 275.426 236.805 274.359C237.742 273.293 238.861 272.473 240.162 271.898C241.463 271.324 242.916 271.037 244.521 271.037C246.654 271.037 248.453 271.424 249.918 272.197C251.395 272.971 252.537 274.037 253.346 275.396C254.166 276.756 254.658 278.303 254.822 280.037H249.549C249.49 279.006 249.285 278.133 248.934 277.418C248.582 276.691 248.049 276.146 247.334 275.783C246.631 275.408 245.693 275.221 244.521 275.221C243.643 275.221 242.875 275.385 242.219 275.713C241.562 276.041 241.012 276.539 240.566 277.207C240.121 277.875 239.787 278.719 239.564 279.738C239.354 280.746 239.248 281.93 239.248 283.289V285.1C239.248 286.424 239.348 287.59 239.547 288.598C239.746 289.594 240.051 290.438 240.461 291.129C240.883 291.809 241.422 292.324 242.078 292.676C242.746 293.016 243.549 293.186 244.486 293.186C245.588 293.186 246.496 293.01 247.211 292.658C247.926 292.307 248.471 291.785 248.846 291.094C249.232 290.402 249.461 289.541 249.531 288.51ZM263.541 271.406V297H258.268V271.406H263.541ZM278.623 271.406L268.814 286.436H262.363L261.695 281.742H266.002L272.225 271.406H278.623ZM273.191 297L266.02 285.557L269.676 281.795L279.449 297H273.191ZM301.984 283.605V284.818C301.984 286.764 301.721 288.51 301.193 290.057C300.666 291.604 299.922 292.922 298.961 294.012C298 295.09 296.852 295.916 295.516 296.49C294.191 297.064 292.721 297.352 291.104 297.352C289.498 297.352 288.027 297.064 286.691 296.49C285.367 295.916 284.219 295.09 283.246 294.012C282.273 292.922 281.518 291.604 280.979 290.057C280.451 288.51 280.188 286.764 280.188 284.818V283.605C280.188 281.648 280.451 279.902 280.979 278.367C281.506 276.82 282.25 275.502 283.211 274.412C284.184 273.322 285.332 272.49 286.656 271.916C287.992 271.342 289.463 271.055 291.068 271.055C292.686 271.055 294.156 271.342 295.48 271.916C296.816 272.49 297.965 273.322 298.926 274.412C299.898 275.502 300.648 276.82 301.176 278.367C301.715 279.902 301.984 281.648 301.984 283.605ZM296.658 284.818V283.57C296.658 282.211 296.535 281.016 296.289 279.984C296.043 278.953 295.68 278.086 295.199 277.383C294.719 276.68 294.133 276.152 293.441 275.801C292.75 275.438 291.959 275.256 291.068 275.256C290.178 275.256 289.387 275.438 288.695 275.801C288.016 276.152 287.436 276.68 286.955 277.383C286.486 278.086 286.129 278.953 285.883 279.984C285.637 281.016 285.514 282.211 285.514 283.57V284.818C285.514 286.166 285.637 287.361 285.883 288.404C286.129 289.436 286.492 290.309 286.973 291.023C287.453 291.727 288.039 292.26 288.73 292.623C289.422 292.986 290.213 293.168 291.104 293.168C291.994 293.168 292.785 292.986 293.477 292.623C294.168 292.26 294.748 291.727 295.217 291.023C295.686 290.309 296.043 289.436 296.289 288.404C296.535 287.361 296.658 286.166 296.658 284.818ZM315.748 287.877H309.227V283.764H315.748C316.756 283.764 317.576 283.6 318.209 283.271C318.842 282.932 319.305 282.463 319.598 281.865C319.891 281.268 320.037 280.594 320.037 279.844C320.037 279.082 319.891 278.373 319.598 277.717C319.305 277.061 318.842 276.533 318.209 276.135C317.576 275.736 316.756 275.537 315.748 275.537H311.055V297H305.781V271.406H315.748C317.752 271.406 319.469 271.77 320.898 272.496C322.34 273.211 323.441 274.201 324.203 275.467C324.965 276.732 325.346 278.18 325.346 279.809C325.346 281.461 324.965 282.891 324.203 284.098C323.441 285.305 322.34 286.236 320.898 286.893C319.469 287.549 317.752 287.877 315.748 287.877ZM350.008 283.605V284.818C350.008 286.764 349.744 288.51 349.217 290.057C348.689 291.604 347.945 292.922 346.984 294.012C346.023 295.09 344.875 295.916 343.539 296.49C342.215 297.064 340.744 297.352 339.127 297.352C337.521 297.352 336.051 297.064 334.715 296.49C333.391 295.916 332.242 295.09 331.27 294.012C330.297 292.922 329.541 291.604 329.002 290.057C328.475 288.51 328.211 286.764 328.211 284.818V283.605C328.211 281.648 328.475 279.902 329.002 278.367C329.529 276.82 330.273 275.502 331.234 274.412C332.207 273.322 333.355 272.49 334.68 271.916C336.016 271.342 337.486 271.055 339.092 271.055C340.709 271.055 342.18 271.342 343.504 271.916C344.84 272.49 345.988 273.322 346.949 274.412C347.922 275.502 348.672 276.82 349.199 278.367C349.738 279.902 350.008 281.648 350.008 283.605ZM344.682 284.818V283.57C344.682 282.211 344.559 281.016 344.312 279.984C344.066 278.953 343.703 278.086 343.223 277.383C342.742 276.68 342.156 276.152 341.465 275.801C340.773 275.438 339.982 275.256 339.092 275.256C338.201 275.256 337.41 275.438 336.719 275.801C336.039 276.152 335.459 276.68 334.979 277.383C334.51 278.086 334.152 278.953 333.906 279.984C333.66 281.016 333.537 282.211 333.537 283.57V284.818C333.537 286.166 333.66 287.361 333.906 288.404C334.152 289.436 334.516 290.309 334.996 291.023C335.477 291.727 336.062 292.26 336.754 292.623C337.445 292.986 338.236 293.168 339.127 293.168C340.018 293.168 340.809 292.986 341.5 292.623C342.191 292.26 342.771 291.727 343.24 291.023C343.709 290.309 344.066 289.436 344.312 288.404C344.559 287.361 344.682 286.166 344.682 284.818ZM379.504 271.406V275.537H367.99V297H362.734V271.406H379.504ZM366.18 280.74H372.156C374.172 280.74 375.906 281.074 377.359 281.742C378.812 282.41 379.932 283.348 380.717 284.555C381.502 285.762 381.895 287.168 381.895 288.773C381.895 289.992 381.672 291.105 381.227 292.113C380.781 293.109 380.131 293.977 379.275 294.715C378.432 295.441 377.412 296.004 376.217 296.402C375.021 296.801 373.668 297 372.156 297H362.734V271.406H368.025V292.887H372.156C373.164 292.887 373.996 292.699 374.652 292.324C375.309 291.949 375.801 291.451 376.129 290.83C376.469 290.197 376.639 289.5 376.639 288.738C376.639 288.012 376.469 287.355 376.129 286.77C375.801 286.172 375.309 285.703 374.652 285.363C373.996 285.023 373.164 284.854 372.156 284.854H366.18V280.74ZM393.057 287.719L399.35 271.406H405.027L396.256 292.043C395.951 292.746 395.6 293.42 395.201 294.064C394.814 294.697 394.352 295.266 393.812 295.77C393.273 296.262 392.629 296.654 391.879 296.947C391.129 297.229 390.232 297.369 389.189 297.369C388.932 297.369 388.615 297.363 388.24 297.352C387.865 297.34 387.566 297.322 387.344 297.299L387.309 293.186C387.449 293.221 387.672 293.244 387.977 293.256C388.281 293.256 388.504 293.256 388.645 293.256C389.336 293.256 389.881 293.156 390.279 292.957C390.678 292.758 390.994 292.477 391.229 292.113C391.475 291.738 391.691 291.299 391.879 290.795L393.057 287.719ZM388.891 271.406L394.727 284.08L396.361 289.898L392.441 289.969L383.23 271.406H388.891ZM426.631 292.887V297H408.191V292.887H426.631ZM409.756 292.887V303.275H404.799L404.518 292.887H409.756ZM430.428 292.887L429.971 303.293H425.137V292.887H430.428ZM423.73 271.406V275.537H411.408V271.406H423.73ZM427.492 271.406V297H422.236V271.406H427.492ZM410.758 271.406H416.031L415.346 281.83C415.24 283.553 415.053 285.076 414.783 286.4C414.525 287.713 414.209 288.867 413.834 289.863C413.471 290.859 413.066 291.732 412.621 292.482C412.176 293.221 411.707 293.865 411.215 294.416C410.723 294.955 410.225 295.436 409.721 295.857C409.217 296.268 408.725 296.648 408.244 297H405.221V292.887H406.398C406.738 292.605 407.096 292.219 407.471 291.727C407.857 291.234 408.221 290.572 408.561 289.74C408.912 288.896 409.217 287.83 409.475 286.541C409.744 285.252 409.943 283.682 410.072 281.83L410.758 271.406ZM441.186 287.719L447.479 271.406H453.156L444.385 292.043C444.08 292.746 443.729 293.42 443.33 294.064C442.943 294.697 442.48 295.266 441.941 295.77C441.402 296.262 440.758 296.654 440.008 296.947C439.258 297.229 438.361 297.369 437.318 297.369C437.061 297.369 436.744 297.363 436.369 297.352C435.994 297.34 435.695 297.322 435.473 297.299L435.438 293.186C435.578 293.221 435.801 293.244 436.105 293.256C436.41 293.256 436.633 293.256 436.773 293.256C437.465 293.256 438.01 293.156 438.408 292.957C438.807 292.758 439.123 292.477 439.357 292.113C439.604 291.738 439.82 291.299 440.008 290.795L441.186 287.719ZM437.02 271.406L442.855 284.08L444.49 289.898L440.57 289.969L431.359 271.406H437.02ZM467.658 271.406V297H462.402V271.406H467.658ZM475.533 271.406V275.537H454.65V271.406H475.533ZM496.188 273.709H501.883C503.406 273.709 504.812 273.961 506.102 274.465C507.391 274.957 508.51 275.672 509.459 276.609C510.42 277.535 511.164 278.654 511.691 279.967C512.219 281.268 512.482 282.721 512.482 284.326C512.482 285.896 512.219 287.326 511.691 288.615C511.164 289.893 510.42 290.988 509.459 291.902C508.51 292.816 507.391 293.52 506.102 294.012C504.812 294.504 503.406 294.75 501.883 294.75H496.188C494.652 294.75 493.24 294.504 491.951 294.012C490.662 293.52 489.537 292.822 488.576 291.92C487.615 291.006 486.865 289.91 486.326 288.633C485.799 287.355 485.535 285.932 485.535 284.361C485.535 282.756 485.799 281.303 486.326 280.002C486.865 278.689 487.615 277.564 488.576 276.627C489.537 275.689 490.662 274.969 491.951 274.465C493.24 273.961 494.652 273.709 496.188 273.709ZM496.188 277.928C495.062 277.928 494.072 278.174 493.217 278.666C492.361 279.158 491.699 279.885 491.23 280.846C490.762 281.795 490.527 282.967 490.527 284.361C490.527 285.369 490.662 286.26 490.932 287.033C491.213 287.795 491.605 288.434 492.109 288.949C492.613 289.465 493.211 289.857 493.902 290.127C494.594 290.396 495.355 290.531 496.188 290.531H501.918C503.031 290.531 504.004 290.291 504.836 289.811C505.68 289.33 506.336 288.627 506.805 287.701C507.273 286.775 507.508 285.65 507.508 284.326C507.508 283.283 507.373 282.363 507.104 281.566C506.834 280.77 506.453 280.102 505.961 279.562C505.469 279.023 504.877 278.619 504.186 278.35C503.506 278.068 502.75 277.928 501.918 277.928H496.188ZM501.566 270.352V298.055H496.504V270.352H501.566ZM536.969 283.605V284.818C536.969 286.764 536.705 288.51 536.178 290.057C535.65 291.604 534.906 292.922 533.945 294.012C532.984 295.09 531.836 295.916 530.5 296.49C529.176 297.064 527.705 297.352 526.088 297.352C524.482 297.352 523.012 297.064 521.676 296.49C520.352 295.916 519.203 295.09 518.23 294.012C517.258 292.922 516.502 291.604 515.963 290.057C515.436 288.51 515.172 286.764 515.172 284.818V283.605C515.172 281.648 515.436 279.902 515.963 278.367C516.49 276.82 517.234 275.502 518.195 274.412C519.168 273.322 520.316 272.49 521.641 271.916C522.977 271.342 524.447 271.055 526.053 271.055C527.67 271.055 529.141 271.342 530.465 271.916C531.801 272.49 532.949 273.322 533.91 274.412C534.883 275.502 535.633 276.82 536.16 278.367C536.699 279.902 536.969 281.648 536.969 283.605ZM531.643 284.818V283.57C531.643 282.211 531.52 281.016 531.273 279.984C531.027 278.953 530.664 278.086 530.184 277.383C529.703 276.68 529.117 276.152 528.426 275.801C527.734 275.438 526.943 275.256 526.053 275.256C525.162 275.256 524.371 275.438 523.68 275.801C523 276.152 522.42 276.68 521.939 277.383C521.471 278.086 521.113 278.953 520.867 279.984C520.621 281.016 520.498 282.211 520.498 283.57V284.818C520.498 286.166 520.621 287.361 520.867 288.404C521.113 289.436 521.477 290.309 521.957 291.023C522.438 291.727 523.023 292.26 523.715 292.623C524.406 292.986 525.197 293.168 526.088 293.168C526.979 293.168 527.77 292.986 528.461 292.623C529.152 292.26 529.732 291.727 530.201 291.023C530.67 290.309 531.027 289.436 531.273 288.404C531.52 287.361 531.643 286.166 531.643 284.818ZM551.014 271.406V297H545.758V271.406H551.014ZM558.889 271.406V275.537H538.006V271.406H558.889ZM582.426 283.605V284.818C582.426 286.764 582.162 288.51 581.635 290.057C581.107 291.604 580.363 292.922 579.402 294.012C578.441 295.09 577.293 295.916 575.957 296.49C574.633 297.064 573.162 297.352 571.545 297.352C569.939 297.352 568.469 297.064 567.133 296.49C565.809 295.916 564.66 295.09 563.688 294.012C562.715 292.922 561.959 291.604 561.42 290.057C560.893 288.51 560.629 286.764 560.629 284.818V283.605C560.629 281.648 560.893 279.902 561.42 278.367C561.947 276.82 562.691 275.502 563.652 274.412C564.625 273.322 565.773 272.49 567.098 271.916C568.434 271.342 569.904 271.055 571.51 271.055C573.127 271.055 574.598 271.342 575.922 271.916C577.258 272.49 578.406 273.322 579.367 274.412C580.34 275.502 581.09 276.82 581.617 278.367C582.156 279.902 582.426 281.648 582.426 283.605ZM577.1 284.818V283.57C577.1 282.211 576.977 281.016 576.73 279.984C576.484 278.953 576.121 278.086 575.641 277.383C575.16 276.68 574.574 276.152 573.883 275.801C573.191 275.438 572.4 275.256 571.51 275.256C570.619 275.256 569.828 275.438 569.137 275.801C568.457 276.152 567.877 276.68 567.396 277.383C566.928 278.086 566.57 278.953 566.324 279.984C566.078 281.016 565.955 282.211 565.955 283.57V284.818C565.955 286.166 566.078 287.361 566.324 288.404C566.57 289.436 566.934 290.309 567.414 291.023C567.895 291.727 568.48 292.26 569.172 292.623C569.863 292.986 570.654 293.168 571.545 293.168C572.436 293.168 573.227 292.986 573.918 292.623C574.609 292.26 575.189 291.727 575.658 291.023C576.127 290.309 576.484 289.436 576.73 288.404C576.977 287.361 577.1 286.166 577.1 284.818ZM188.219 325.605V326.818C188.219 328.764 187.955 330.51 187.428 332.057C186.9 333.604 186.156 334.922 185.195 336.012C184.234 337.09 183.086 337.916 181.75 338.49C180.426 339.064 178.955 339.352 177.338 339.352C175.732 339.352 174.262 339.064 172.926 338.49C171.602 337.916 170.453 337.09 169.48 336.012C168.508 334.922 167.752 333.604 167.213 332.057C166.686 330.51 166.422 328.764 166.422 326.818V325.605C166.422 323.648 166.686 321.902 167.213 320.367C167.74 318.82 168.484 317.502 169.445 316.412C170.418 315.322 171.566 314.49 172.891 313.916C174.227 313.342 175.697 313.055 177.303 313.055C178.92 313.055 180.391 313.342 181.715 313.916C183.051 314.49 184.199 315.322 185.16 316.412C186.133 317.502 186.883 318.82 187.41 320.367C187.949 321.902 188.219 323.648 188.219 325.605ZM182.893 326.818V325.57C182.893 324.211 182.77 323.016 182.523 321.984C182.277 320.953 181.914 320.086 181.434 319.383C180.953 318.68 180.367 318.152 179.676 317.801C178.984 317.438 178.193 317.256 177.303 317.256C176.412 317.256 175.621 317.438 174.93 317.801C174.25 318.152 173.67 318.68 173.189 319.383C172.721 320.086 172.363 320.953 172.117 321.984C171.871 323.016 171.748 324.211 171.748 325.57V326.818C171.748 328.166 171.871 329.361 172.117 330.404C172.363 331.436 172.727 332.309 173.207 333.023C173.688 333.727 174.273 334.26 174.965 334.623C175.656 334.986 176.447 335.168 177.338 335.168C178.229 335.168 179.02 334.986 179.711 334.623C180.402 334.26 180.982 333.727 181.451 333.023C181.92 332.309 182.277 331.436 182.523 330.404C182.77 329.361 182.893 328.166 182.893 326.818ZM208.75 313.406V317.537H197.236V339H191.98V313.406H208.75ZM195.426 322.74H201.402C203.418 322.74 205.152 323.074 206.605 323.742C208.059 324.41 209.178 325.348 209.963 326.555C210.748 327.762 211.141 329.168 211.141 330.773C211.141 331.992 210.918 333.105 210.473 334.113C210.027 335.109 209.377 335.977 208.521 336.715C207.678 337.441 206.658 338.004 205.463 338.402C204.268 338.801 202.914 339 201.402 339H191.98V313.406H197.271V334.887H201.402C202.41 334.887 203.242 334.699 203.898 334.324C204.555 333.949 205.047 333.451 205.375 332.83C205.715 332.197 205.885 331.5 205.885 330.738C205.885 330.012 205.715 329.355 205.375 328.77C205.047 328.172 204.555 327.703 203.898 327.363C203.242 327.023 202.41 326.854 201.402 326.854H195.426V322.74ZM212.723 317.361V313.406H221.916V317.361H212.723ZM223.27 322.74H229.246C231.25 322.74 232.979 323.074 234.432 323.742C235.896 324.41 237.021 325.348 237.807 326.555C238.592 327.762 238.984 329.168 238.984 330.773C238.984 331.992 238.756 333.105 238.299 334.113C237.854 335.109 237.209 335.977 236.365 336.715C235.521 337.441 234.502 338.004 233.307 338.402C232.111 338.801 230.758 339 229.246 339H219.824V313.406H225.115V334.887H229.246C230.242 334.887 231.068 334.699 231.725 334.324C232.393 333.949 232.891 333.451 233.219 332.83C233.547 332.197 233.711 331.5 233.711 330.738C233.711 330.012 233.547 329.355 233.219 328.77C232.891 328.172 232.393 327.703 231.725 327.363C231.068 327.023 230.242 326.854 229.246 326.854H223.27V322.74ZM259.568 334.887V339H245.945V334.887H259.568ZM247.668 313.406V339H242.395V313.406H247.668ZM257.793 323.83V327.838H245.945V323.83H257.793ZM259.551 313.406V317.537H245.945V313.406H259.551ZM267.936 313.406V339H262.662V313.406H267.936ZM283.018 313.406L273.209 328.436H266.758L266.09 323.742H270.396L276.619 313.406H283.018ZM277.586 339L270.414 327.557L274.07 323.795L283.844 339H277.586ZM297.361 313.406V339H292.105V313.406H297.361ZM305.236 313.406V317.537H284.354V313.406H305.236ZM316.75 317.783L309.789 339H304.182L313.691 313.406H317.26L316.75 317.783ZM322.533 339L315.555 317.783L314.992 313.406H318.596L328.158 339H322.533ZM322.217 329.473V333.604H308.699V329.473H322.217ZM344.787 313.406V339H339.514V313.406H344.787ZM359.869 313.406L350.061 328.436H343.609L342.941 323.742H347.248L353.471 313.406H359.869ZM354.438 339L347.266 327.557L350.922 323.795L360.695 339H354.438ZM370.803 329.719L377.096 313.406H382.773L374.002 334.043C373.697 334.746 373.346 335.42 372.947 336.064C372.561 336.697 372.098 337.266 371.559 337.77C371.02 338.262 370.375 338.654 369.625 338.947C368.875 339.229 367.979 339.369 366.936 339.369C366.678 339.369 366.361 339.363 365.986 339.352C365.611 339.34 365.312 339.322 365.09 339.299L365.055 335.186C365.195 335.221 365.418 335.244 365.723 335.256C366.027 335.256 366.25 335.256 366.391 335.256C367.082 335.256 367.627 335.156 368.025 334.957C368.424 334.758 368.74 334.477 368.975 334.113C369.221 333.738 369.438 333.299 369.625 332.795L370.803 329.719ZM366.637 313.406L372.473 326.08L374.107 331.898L370.188 331.969L360.977 313.406H366.637ZM401.635 313.406V317.537H388.908V313.406H401.635ZM405.396 313.406V339H400.123V313.406H405.396ZM388.24 313.406H393.496L392.846 326.256C392.752 328.178 392.57 329.848 392.301 331.266C392.043 332.684 391.691 333.891 391.246 334.887C390.801 335.871 390.25 336.668 389.594 337.277C388.949 337.875 388.188 338.314 387.309 338.596C386.43 338.865 385.428 339 384.303 339H383.002V334.887L383.67 334.834C384.244 334.775 384.748 334.623 385.182 334.377C385.615 334.131 385.984 333.762 386.289 333.27C386.605 332.777 386.863 332.15 387.062 331.389C387.273 330.615 387.438 329.672 387.555 328.559C387.684 327.445 387.771 326.145 387.818 324.656L388.24 313.406ZM413.395 322.74H419.371C421.387 322.74 423.121 323.074 424.574 323.742C426.027 324.41 427.146 325.348 427.932 326.555C428.717 327.762 429.109 329.168 429.109 330.773C429.109 331.992 428.887 333.105 428.441 334.113C427.996 335.109 427.346 335.977 426.49 336.715C425.646 337.441 424.627 338.004 423.432 338.402C422.236 338.801 420.883 339 419.371 339H409.949V313.406H415.24V334.887H419.371C420.379 334.887 421.211 334.699 421.867 334.324C422.523 333.949 423.016 333.451 423.344 332.83C423.684 332.197 423.854 331.5 423.854 330.738C423.854 330.012 423.684 329.355 423.344 328.77C423.016 328.172 422.523 327.703 421.867 327.363C421.211 327.023 420.379 326.854 419.371 326.854H413.395V322.74ZM441.256 313.406V339H436V313.406H441.256ZM449.131 313.406V317.537H428.248V313.406H449.131ZM460.17 329.719L466.463 313.406H472.141L463.369 334.043C463.064 334.746 462.713 335.42 462.314 336.064C461.928 336.697 461.465 337.266 460.926 337.77C460.387 338.262 459.742 338.654 458.992 338.947C458.242 339.229 457.346 339.369 456.303 339.369C456.045 339.369 455.729 339.363 455.354 339.352C454.979 339.34 454.68 339.322 454.457 339.299L454.422 335.186C454.562 335.221 454.785 335.244 455.09 335.256C455.395 335.256 455.617 335.256 455.758 335.256C456.449 335.256 456.994 335.156 457.393 334.957C457.791 334.758 458.107 334.477 458.342 334.113C458.588 333.738 458.805 333.299 458.992 332.795L460.17 329.719ZM456.004 313.406L461.84 326.08L463.475 331.898L459.555 331.969L450.344 313.406H456.004ZM484.85 329.877H478.328V325.764H484.85C485.857 325.764 486.678 325.6 487.311 325.271C487.943 324.932 488.406 324.463 488.699 323.865C488.992 323.268 489.139 322.594 489.139 321.844C489.139 321.082 488.992 320.373 488.699 319.717C488.406 319.061 487.943 318.533 487.311 318.135C486.678 317.736 485.857 317.537 484.85 317.537H480.156V339H474.883V313.406H484.85C486.854 313.406 488.57 313.77 490 314.496C491.441 315.211 492.543 316.201 493.305 317.467C494.066 318.732 494.447 320.18 494.447 321.809C494.447 323.461 494.066 324.891 493.305 326.098C492.543 327.305 491.441 328.236 490 328.893C488.57 329.549 486.854 329.877 484.85 329.877ZM501.566 322.74H507.543C509.547 322.74 511.275 323.074 512.729 323.742C514.193 324.41 515.312 325.348 516.086 326.555C516.871 327.762 517.264 329.168 517.264 330.773C517.264 331.992 517.041 333.105 516.596 334.113C516.15 335.109 515.506 335.977 514.662 336.715C513.818 337.441 512.799 338.004 511.604 338.402C510.408 338.801 509.055 339 507.543 339H498.121V313.406H503.412V334.887H507.543C508.539 334.887 509.365 334.699 510.021 334.324C510.689 333.949 511.188 333.451 511.516 332.83C511.844 332.197 512.008 331.5 512.008 330.738C512.008 330.012 511.844 329.355 511.516 328.77C511.188 328.172 510.689 327.703 510.021 327.363C509.365 327.023 508.539 326.854 507.543 326.854H501.566V322.74ZM524.787 313.406V339H519.531V313.406H524.787Z" fill="white"/>
<path d="M421 137.917H271C263 137.917 256.417 131.333 256.417 123.333V95.6667C256.417 90.0001 260.333 84.2501 265.583 82.1668L340.583 52.167C343.75 50.917 348.25 50.917 351.417 52.167L426.417 82.1668C431.667 84.2501 435.583 90.0834 435.583 95.6667V123.333C435.583 131.333 429 137.917 421 137.917ZM346 63.667C345.667 63.667 345.334 63.6666 345.167 63.7499L270.25 93.7502C269.75 94.0002 268.917 95.0834 268.917 95.6667V123.333C268.917 124.5 269.833 125.417 271 125.417H421C422.167 125.417 423.083 124.5 423.083 123.333V95.6667C423.083 95.0834 422.334 94.0002 421.75 93.7502L346.75 63.7499C346.584 63.6666 346.333 63.667 346 63.667Z" fill="white"/>
<path d="M429.333 229.583H262.667C259.25 229.583 256.417 226.75 256.417 223.333V198.333C256.417 190.333 263 183.75 271 183.75H421C429 183.75 435.583 190.333 435.583 198.333V223.333C435.583 226.75 432.75 229.583 429.333 229.583ZM268.917 217.083H423.083V198.333C423.083 197.167 422.167 196.25 421 196.25H271C269.833 196.25 268.917 197.167 268.917 198.333V217.083Z" fill="white"/>
<path d="M279.333 196.25C275.917 196.25 273.083 193.417 273.083 190V131.667C273.083 128.25 275.917 125.417 279.333 125.417C282.75 125.417 285.583 128.25 285.583 131.667V190C285.583 193.417 282.75 196.25 279.333 196.25Z" fill="white"/>
<path d="M312.667 196.25C309.25 196.25 306.417 193.417 306.417 190V131.667C306.417 128.25 309.25 125.417 312.667 125.417C316.083 125.417 318.917 128.25 318.917 131.667V190C318.917 193.417 316.083 196.25 312.667 196.25Z" fill="white"/>
<path d="M346 196.25C342.583 196.25 339.75 193.417 339.75 190V131.667C339.75 128.25 342.583 125.417 346 125.417C349.417 125.417 352.25 128.25 352.25 131.667V190C352.25 193.417 349.417 196.25 346 196.25Z" fill="white"/>
<path d="M379.333 196.25C375.917 196.25 373.083 193.417 373.083 190V131.667C373.083 128.25 375.917 125.417 379.333 125.417C382.75 125.417 385.583 128.25 385.583 131.667V190C385.583 193.417 382.75 196.25 379.333 196.25Z" fill="white"/>
<path d="M412.667 196.25C409.25 196.25 406.417 193.417 406.417 190V131.667C406.417 128.25 409.25 125.417 412.667 125.417C416.083 125.417 418.917 128.25 418.917 131.667V190C418.917 193.417 416.083 196.25 412.667 196.25Z" fill="white"/>
<path d="M437.667 229.583H254.333C250.917 229.583 248.083 226.75 248.083 223.333C248.083 219.917 250.917 217.083 254.333 217.083H437.667C441.083 217.083 443.917 219.917 443.917 223.333C443.917 226.75 441.083 229.583 437.667 229.583Z" fill="white"/>
<path d="M346 117.083C335.667 117.083 327.25 108.667 327.25 98.3334C327.25 88 335.667 79.5834 346 79.5834C356.333 79.5834 364.75 88 364.75 98.3334C364.75 108.667 356.333 117.083 346 117.083ZM346 92.0834C342.583 92.0834 339.75 94.9167 339.75 98.3334C339.75 101.75 342.583 104.583 346 104.583C349.417 104.583 352.25 101.75 352.25 98.3334C352.25 94.9167 349.417 92.0834 346 92.0834Z" fill="white"/>
</svg>
