<svg xmlns="http://www.w3.org/2000/svg" viewBox="0 0 32 32">
	<path fill="#B9BAC5" d="M 15 4 L 15 10 L 17 10 L 17 4 L 15 4 z M 8.2226562 6.8085938 L 6.8085938 8.2226562 L 11.050781 12.464844 L 12.464844 11.050781 L 8.2226562 6.8085938 z M 23.777344 6.8085938 L 19.535156 11.050781 L 20.949219 12.464844 L 25.191406 8.2226562 L 23.777344 6.8085938 z M 4 15 L 4 17 L 10 17 L 10 15 L 4 15 z M 22 15 L 22 17 L 28 17 L 28 15 L 22 15 z M 11.050781 19.535156 L 6.8085938 23.777344 L 8.2226562 25.191406 L 12.464844 20.949219 L 11.050781 19.535156 z M 20.949219 19.535156 L 19.535156 20.949219 L 23.777344 25.191406 L 25.191406 23.777344 L 20.949219 19.535156 z M 15 22 L 15 28 L 17 28 L 17 22 L 15 22 z">
	</path>
</svg>
