<svg width="691" height="408" viewBox="0 0 691 408" fill="none" xmlns="http://www.w3.org/2000/svg">
<rect width="691" height="408" fill="#005596"/>
<path d="M423.333 229.583H256.667C253.25 229.583 250.417 226.75 250.417 223.333C250.417 219.917 253.25 217.083 256.667 217.083H423.333C426.75 217.083 429.583 219.917 429.583 223.333C429.583 226.75 426.75 229.583 423.333 229.583Z" fill="white"/>
<path d="M360.833 91.9161C353 91.9161 345.167 90.4163 337.667 87.4163C335.333 86.4996 333.75 84.1662 333.75 81.5829V56.5829C333.75 54.4995 334.75 52.5829 336.5 51.4162C338.25 50.2496 340.417 49.9994 342.333 50.7494C354.25 55.4994 367.417 55.4994 379.333 50.7494C381.25 49.9994 383.417 50.2496 385.167 51.4162C386.917 52.5829 387.917 54.4995 387.917 56.5829V81.5829C387.917 84.1662 386.333 86.4163 384 87.4163C376.5 90.4163 368.667 91.9161 360.833 91.9161ZM346.25 77.2494C355.75 80.166 365.917 80.166 375.417 77.2494V65.1664C365.833 67.4998 355.833 67.4998 346.25 65.1664V77.2494Z" fill="white"/>
<path d="M340 112.917C336.583 112.917 333.75 110.083 333.75 106.667V81.6667C333.75 78.25 336.583 75.4167 340 75.4167C343.417 75.4167 346.25 78.25 346.25 81.6667V106.667C346.25 110.083 343.417 112.917 340 112.917Z" fill="white"/>
<path d="M406.667 229.583H273.333C269.917 229.583 267.083 226.75 267.083 223.333V131.667C267.083 111.5 278.167 100.417 298.333 100.417H381.667C401.833 100.417 412.917 111.5 412.917 131.667V223.333C412.917 226.75 410.083 229.583 406.667 229.583ZM279.583 217.083H400.417V131.667C400.417 118.5 394.833 112.917 381.667 112.917H298.333C285.167 112.917 279.583 118.5 279.583 131.667V217.083Z" fill="white"/>
<path d="M401.834 146.25H278.167C274.751 146.25 271.917 143.417 271.917 140C271.917 136.583 274.751 133.75 278.167 133.75H401.834C405.251 133.75 408.084 136.583 408.084 140C408.084 143.417 405.251 146.25 401.834 146.25Z" fill="white"/>
<path d="M312.835 140H300.335V223.333H312.835V140Z" fill="white"/>
<path d="M346.169 140H333.669V223.333H346.169V140Z" fill="white"/>
<path d="M379.502 140H367.002V223.333H379.502V140Z" fill="white"/>
<path d="M119.91 284.73H115.938V281.936H119.102C120.027 281.936 120.777 281.795 121.352 281.514C121.926 281.221 122.348 280.811 122.617 280.283C122.887 279.756 123.021 279.135 123.021 278.42C123.021 277.834 122.869 277.295 122.564 276.803C122.271 276.311 121.814 275.918 121.193 275.625C120.572 275.32 119.781 275.168 118.82 275.168C118.094 275.168 117.432 275.297 116.834 275.555C116.236 275.812 115.762 276.176 115.41 276.645C115.059 277.102 114.883 277.658 114.883 278.314H109.627C109.627 277.189 109.867 276.182 110.348 275.291C110.84 274.389 111.508 273.627 112.352 273.006C113.207 272.373 114.191 271.893 115.305 271.564C116.418 271.236 117.59 271.072 118.82 271.072C120.262 271.072 121.562 271.23 122.723 271.547C123.883 271.852 124.879 272.309 125.711 272.918C126.543 273.527 127.182 274.283 127.627 275.186C128.072 276.088 128.295 277.137 128.295 278.332C128.295 279.211 128.096 280.037 127.697 280.811C127.299 281.584 126.73 282.264 125.992 282.85C125.254 283.436 124.369 283.898 123.338 284.238C122.307 284.566 121.164 284.73 119.91 284.73ZM115.938 283.201H119.91C121.305 283.201 122.541 283.348 123.619 283.641C124.709 283.934 125.629 284.361 126.379 284.924C127.141 285.486 127.715 286.184 128.102 287.016C128.5 287.836 128.699 288.779 128.699 289.846C128.699 291.041 128.453 292.102 127.961 293.027C127.48 293.953 126.795 294.738 125.904 295.383C125.025 296.027 123.982 296.514 122.775 296.842C121.58 297.17 120.262 297.334 118.82 297.334C117.672 297.334 116.529 297.193 115.393 296.912C114.256 296.619 113.225 296.174 112.299 295.576C111.373 294.979 110.635 294.211 110.084 293.273C109.533 292.336 109.258 291.211 109.258 289.898H114.549C114.549 290.52 114.73 291.088 115.094 291.604C115.457 292.107 115.961 292.512 116.605 292.816C117.25 293.109 117.988 293.256 118.82 293.256C119.793 293.256 120.619 293.104 121.299 292.799C121.99 292.494 122.512 292.078 122.863 291.551C123.227 291.012 123.408 290.42 123.408 289.775C123.408 289.084 123.314 288.498 123.127 288.018C122.939 287.537 122.664 287.145 122.301 286.84C121.938 286.523 121.486 286.295 120.947 286.154C120.42 286.014 119.805 285.943 119.102 285.943H115.938V283.201ZM152.904 292.887V297H134.465V292.887H152.904ZM136.029 292.887V303.275H131.072L130.791 292.887H136.029ZM156.701 292.887L156.244 303.293H151.41V292.887H156.701ZM150.004 271.406V275.537H137.682V271.406H150.004ZM153.766 271.406V297H148.51V271.406H153.766ZM137.031 271.406H142.305L141.619 281.83C141.514 283.553 141.326 285.076 141.057 286.4C140.799 287.713 140.482 288.867 140.107 289.863C139.744 290.859 139.34 291.732 138.895 292.482C138.449 293.221 137.98 293.865 137.488 294.416C136.996 294.955 136.498 295.436 135.994 295.857C135.49 296.268 134.998 296.648 134.518 297H131.494V292.887H132.672C133.012 292.605 133.369 292.219 133.744 291.727C134.131 291.234 134.494 290.572 134.834 289.74C135.186 288.896 135.49 287.83 135.748 286.541C136.018 285.252 136.217 283.682 136.346 281.83L137.031 271.406ZM176.6 292.887V297H162.977V292.887H176.6ZM164.699 271.406V297H159.426V271.406H164.699ZM174.824 281.83V285.838H162.977V281.83H174.824ZM176.582 271.406V275.537H162.977V271.406H176.582ZM194.512 288.51H199.768C199.662 290.232 199.188 291.762 198.344 293.098C197.512 294.434 196.346 295.477 194.846 296.227C193.357 296.977 191.564 297.352 189.467 297.352C187.826 297.352 186.355 297.07 185.055 296.508C183.754 295.934 182.641 295.113 181.715 294.047C180.801 292.98 180.104 291.691 179.623 290.18C179.143 288.668 178.902 286.975 178.902 285.1V283.324C178.902 281.449 179.148 279.756 179.641 278.244C180.145 276.721 180.859 275.426 181.785 274.359C182.723 273.293 183.842 272.473 185.143 271.898C186.443 271.324 187.896 271.037 189.502 271.037C191.635 271.037 193.434 271.424 194.898 272.197C196.375 272.971 197.518 274.037 198.326 275.396C199.146 276.756 199.639 278.303 199.803 280.037H194.529C194.471 279.006 194.266 278.133 193.914 277.418C193.562 276.691 193.029 276.146 192.314 275.783C191.611 275.408 190.674 275.221 189.502 275.221C188.623 275.221 187.855 275.385 187.199 275.713C186.543 276.041 185.992 276.539 185.547 277.207C185.102 277.875 184.768 278.719 184.545 279.738C184.334 280.746 184.229 281.93 184.229 283.289V285.1C184.229 286.424 184.328 287.59 184.527 288.598C184.727 289.594 185.031 290.438 185.441 291.129C185.863 291.809 186.402 292.324 187.059 292.676C187.727 293.016 188.529 293.186 189.467 293.186C190.568 293.186 191.477 293.01 192.191 292.658C192.906 292.307 193.451 291.785 193.826 291.094C194.213 290.402 194.441 289.541 194.512 288.51ZM206.641 280.74H212.617C214.633 280.74 216.367 281.074 217.82 281.742C219.273 282.41 220.393 283.348 221.178 284.555C221.963 285.762 222.355 287.168 222.355 288.773C222.355 289.992 222.133 291.105 221.688 292.113C221.242 293.109 220.592 293.977 219.736 294.715C218.893 295.441 217.873 296.004 216.678 296.402C215.482 296.801 214.129 297 212.617 297H203.195V271.406H208.486V292.887H212.617C213.625 292.887 214.457 292.699 215.113 292.324C215.77 291.949 216.262 291.451 216.59 290.83C216.93 290.197 217.1 289.5 217.1 288.738C217.1 288.012 216.93 287.355 216.59 286.77C216.262 286.172 215.77 285.703 215.113 285.363C214.457 285.023 213.625 284.854 212.617 284.854H206.641V280.74ZM249.531 288.51H254.787C254.682 290.232 254.207 291.762 253.363 293.098C252.531 294.434 251.365 295.477 249.865 296.227C248.377 296.977 246.584 297.352 244.486 297.352C242.846 297.352 241.375 297.07 240.074 296.508C238.773 295.934 237.66 295.113 236.734 294.047C235.82 292.98 235.123 291.691 234.643 290.18C234.162 288.668 233.922 286.975 233.922 285.1V283.324C233.922 281.449 234.168 279.756 234.66 278.244C235.164 276.721 235.879 275.426 236.805 274.359C237.742 273.293 238.861 272.473 240.162 271.898C241.463 271.324 242.916 271.037 244.521 271.037C246.654 271.037 248.453 271.424 249.918 272.197C251.395 272.971 252.537 274.037 253.346 275.396C254.166 276.756 254.658 278.303 254.822 280.037H249.549C249.49 279.006 249.285 278.133 248.934 277.418C248.582 276.691 248.049 276.146 247.334 275.783C246.631 275.408 245.693 275.221 244.521 275.221C243.643 275.221 242.875 275.385 242.219 275.713C241.562 276.041 241.012 276.539 240.566 277.207C240.121 277.875 239.787 278.719 239.564 279.738C239.354 280.746 239.248 281.93 239.248 283.289V285.1C239.248 286.424 239.348 287.59 239.547 288.598C239.746 289.594 240.051 290.438 240.461 291.129C240.883 291.809 241.422 292.324 242.078 292.676C242.746 293.016 243.549 293.186 244.486 293.186C245.588 293.186 246.496 293.01 247.211 292.658C247.926 292.307 248.471 291.785 248.846 291.094C249.232 290.402 249.461 289.541 249.531 288.51ZM263.541 271.406V297H258.268V271.406H263.541ZM278.623 271.406L268.814 286.436H262.363L261.695 281.742H266.002L272.225 271.406H278.623ZM273.191 297L266.02 285.557L269.676 281.795L279.449 297H273.191ZM301.984 283.605V284.818C301.984 286.764 301.721 288.51 301.193 290.057C300.666 291.604 299.922 292.922 298.961 294.012C298 295.09 296.852 295.916 295.516 296.49C294.191 297.064 292.721 297.352 291.104 297.352C289.498 297.352 288.027 297.064 286.691 296.49C285.367 295.916 284.219 295.09 283.246 294.012C282.273 292.922 281.518 291.604 280.979 290.057C280.451 288.51 280.188 286.764 280.188 284.818V283.605C280.188 281.648 280.451 279.902 280.979 278.367C281.506 276.82 282.25 275.502 283.211 274.412C284.184 273.322 285.332 272.49 286.656 271.916C287.992 271.342 289.463 271.055 291.068 271.055C292.686 271.055 294.156 271.342 295.48 271.916C296.816 272.49 297.965 273.322 298.926 274.412C299.898 275.502 300.648 276.82 301.176 278.367C301.715 279.902 301.984 281.648 301.984 283.605ZM296.658 284.818V283.57C296.658 282.211 296.535 281.016 296.289 279.984C296.043 278.953 295.68 278.086 295.199 277.383C294.719 276.68 294.133 276.152 293.441 275.801C292.75 275.438 291.959 275.256 291.068 275.256C290.178 275.256 289.387 275.438 288.695 275.801C288.016 276.152 287.436 276.68 286.955 277.383C286.486 278.086 286.129 278.953 285.883 279.984C285.637 281.016 285.514 282.211 285.514 283.57V284.818C285.514 286.166 285.637 287.361 285.883 288.404C286.129 289.436 286.492 290.309 286.973 291.023C287.453 291.727 288.039 292.26 288.73 292.623C289.422 292.986 290.213 293.168 291.104 293.168C291.994 293.168 292.785 292.986 293.477 292.623C294.168 292.26 294.748 291.727 295.217 291.023C295.686 290.309 296.043 289.436 296.289 288.404C296.535 287.361 296.658 286.166 296.658 284.818ZM315.748 287.877H309.227V283.764H315.748C316.756 283.764 317.576 283.6 318.209 283.271C318.842 282.932 319.305 282.463 319.598 281.865C319.891 281.268 320.037 280.594 320.037 279.844C320.037 279.082 319.891 278.373 319.598 277.717C319.305 277.061 318.842 276.533 318.209 276.135C317.576 275.736 316.756 275.537 315.748 275.537H311.055V297H305.781V271.406H315.748C317.752 271.406 319.469 271.77 320.898 272.496C322.34 273.211 323.441 274.201 324.203 275.467C324.965 276.732 325.346 278.18 325.346 279.809C325.346 281.461 324.965 282.891 324.203 284.098C323.441 285.305 322.34 286.236 320.898 286.893C319.469 287.549 317.752 287.877 315.748 287.877ZM350.008 283.605V284.818C350.008 286.764 349.744 288.51 349.217 290.057C348.689 291.604 347.945 292.922 346.984 294.012C346.023 295.09 344.875 295.916 343.539 296.49C342.215 297.064 340.744 297.352 339.127 297.352C337.521 297.352 336.051 297.064 334.715 296.49C333.391 295.916 332.242 295.09 331.27 294.012C330.297 292.922 329.541 291.604 329.002 290.057C328.475 288.51 328.211 286.764 328.211 284.818V283.605C328.211 281.648 328.475 279.902 329.002 278.367C329.529 276.82 330.273 275.502 331.234 274.412C332.207 273.322 333.355 272.49 334.68 271.916C336.016 271.342 337.486 271.055 339.092 271.055C340.709 271.055 342.18 271.342 343.504 271.916C344.84 272.49 345.988 273.322 346.949 274.412C347.922 275.502 348.672 276.82 349.199 278.367C349.738 279.902 350.008 281.648 350.008 283.605ZM344.682 284.818V283.57C344.682 282.211 344.559 281.016 344.312 279.984C344.066 278.953 343.703 278.086 343.223 277.383C342.742 276.68 342.156 276.152 341.465 275.801C340.773 275.438 339.982 275.256 339.092 275.256C338.201 275.256 337.41 275.438 336.719 275.801C336.039 276.152 335.459 276.68 334.979 277.383C334.51 278.086 334.152 278.953 333.906 279.984C333.66 281.016 333.537 282.211 333.537 283.57V284.818C333.537 286.166 333.66 287.361 333.906 288.404C334.152 289.436 334.516 290.309 334.996 291.023C335.477 291.727 336.062 292.26 336.754 292.623C337.445 292.986 338.236 293.168 339.127 293.168C340.018 293.168 340.809 292.986 341.5 292.623C342.191 292.26 342.771 291.727 343.24 291.023C343.709 290.309 344.066 289.436 344.312 288.404C344.559 287.361 344.682 286.166 344.682 284.818ZM379.504 271.406V275.537H367.99V297H362.734V271.406H379.504ZM366.18 280.74H372.156C374.172 280.74 375.906 281.074 377.359 281.742C378.812 282.41 379.932 283.348 380.717 284.555C381.502 285.762 381.895 287.168 381.895 288.773C381.895 289.992 381.672 291.105 381.227 292.113C380.781 293.109 380.131 293.977 379.275 294.715C378.432 295.441 377.412 296.004 376.217 296.402C375.021 296.801 373.668 297 372.156 297H362.734V271.406H368.025V292.887H372.156C373.164 292.887 373.996 292.699 374.652 292.324C375.309 291.949 375.801 291.451 376.129 290.83C376.469 290.197 376.639 289.5 376.639 288.738C376.639 288.012 376.469 287.355 376.129 286.77C375.801 286.172 375.309 285.703 374.652 285.363C373.996 285.023 373.164 284.854 372.156 284.854H366.18V280.74ZM393.057 287.719L399.35 271.406H405.027L396.256 292.043C395.951 292.746 395.6 293.42 395.201 294.064C394.814 294.697 394.352 295.266 393.812 295.77C393.273 296.262 392.629 296.654 391.879 296.947C391.129 297.229 390.232 297.369 389.189 297.369C388.932 297.369 388.615 297.363 388.24 297.352C387.865 297.34 387.566 297.322 387.344 297.299L387.309 293.186C387.449 293.221 387.672 293.244 387.977 293.256C388.281 293.256 388.504 293.256 388.645 293.256C389.336 293.256 389.881 293.156 390.279 292.957C390.678 292.758 390.994 292.477 391.229 292.113C391.475 291.738 391.691 291.299 391.879 290.795L393.057 287.719ZM388.891 271.406L394.727 284.08L396.361 289.898L392.441 289.969L383.23 271.406H388.891ZM426.631 292.887V297H408.191V292.887H426.631ZM409.756 292.887V303.275H404.799L404.518 292.887H409.756ZM430.428 292.887L429.971 303.293H425.137V292.887H430.428ZM423.73 271.406V275.537H411.408V271.406H423.73ZM427.492 271.406V297H422.236V271.406H427.492ZM410.758 271.406H416.031L415.346 281.83C415.24 283.553 415.053 285.076 414.783 286.4C414.525 287.713 414.209 288.867 413.834 289.863C413.471 290.859 413.066 291.732 412.621 292.482C412.176 293.221 411.707 293.865 411.215 294.416C410.723 294.955 410.225 295.436 409.721 295.857C409.217 296.268 408.725 296.648 408.244 297H405.221V292.887H406.398C406.738 292.605 407.096 292.219 407.471 291.727C407.857 291.234 408.221 290.572 408.561 289.74C408.912 288.896 409.217 287.83 409.475 286.541C409.744 285.252 409.943 283.682 410.072 281.83L410.758 271.406ZM441.186 287.719L447.479 271.406H453.156L444.385 292.043C444.08 292.746 443.729 293.42 443.33 294.064C442.943 294.697 442.48 295.266 441.941 295.77C441.402 296.262 440.758 296.654 440.008 296.947C439.258 297.229 438.361 297.369 437.318 297.369C437.061 297.369 436.744 297.363 436.369 297.352C435.994 297.34 435.695 297.322 435.473 297.299L435.438 293.186C435.578 293.221 435.801 293.244 436.105 293.256C436.41 293.256 436.633 293.256 436.773 293.256C437.465 293.256 438.01 293.156 438.408 292.957C438.807 292.758 439.123 292.477 439.357 292.113C439.604 291.738 439.82 291.299 440.008 290.795L441.186 287.719ZM437.02 271.406L442.855 284.08L444.49 289.898L440.57 289.969L431.359 271.406H437.02ZM467.658 271.406V297H462.402V271.406H467.658ZM475.533 271.406V275.537H454.65V271.406H475.533ZM496.188 273.709H501.883C503.406 273.709 504.812 273.961 506.102 274.465C507.391 274.957 508.51 275.672 509.459 276.609C510.42 277.535 511.164 278.654 511.691 279.967C512.219 281.268 512.482 282.721 512.482 284.326C512.482 285.896 512.219 287.326 511.691 288.615C511.164 289.893 510.42 290.988 509.459 291.902C508.51 292.816 507.391 293.52 506.102 294.012C504.812 294.504 503.406 294.75 501.883 294.75H496.188C494.652 294.75 493.24 294.504 491.951 294.012C490.662 293.52 489.537 292.822 488.576 291.92C487.615 291.006 486.865 289.91 486.326 288.633C485.799 287.355 485.535 285.932 485.535 284.361C485.535 282.756 485.799 281.303 486.326 280.002C486.865 278.689 487.615 277.564 488.576 276.627C489.537 275.689 490.662 274.969 491.951 274.465C493.24 273.961 494.652 273.709 496.188 273.709ZM496.188 277.928C495.062 277.928 494.072 278.174 493.217 278.666C492.361 279.158 491.699 279.885 491.23 280.846C490.762 281.795 490.527 282.967 490.527 284.361C490.527 285.369 490.662 286.26 490.932 287.033C491.213 287.795 491.605 288.434 492.109 288.949C492.613 289.465 493.211 289.857 493.902 290.127C494.594 290.396 495.355 290.531 496.188 290.531H501.918C503.031 290.531 504.004 290.291 504.836 289.811C505.68 289.33 506.336 288.627 506.805 287.701C507.273 286.775 507.508 285.65 507.508 284.326C507.508 283.283 507.373 282.363 507.104 281.566C506.834 280.77 506.453 280.102 505.961 279.562C505.469 279.023 504.877 278.619 504.186 278.35C503.506 278.068 502.75 277.928 501.918 277.928H496.188ZM501.566 270.352V298.055H496.504V270.352H501.566ZM536.969 283.605V284.818C536.969 286.764 536.705 288.51 536.178 290.057C535.65 291.604 534.906 292.922 533.945 294.012C532.984 295.09 531.836 295.916 530.5 296.49C529.176 297.064 527.705 297.352 526.088 297.352C524.482 297.352 523.012 297.064 521.676 296.49C520.352 295.916 519.203 295.09 518.23 294.012C517.258 292.922 516.502 291.604 515.963 290.057C515.436 288.51 515.172 286.764 515.172 284.818V283.605C515.172 281.648 515.436 279.902 515.963 278.367C516.49 276.82 517.234 275.502 518.195 274.412C519.168 273.322 520.316 272.49 521.641 271.916C522.977 271.342 524.447 271.055 526.053 271.055C527.67 271.055 529.141 271.342 530.465 271.916C531.801 272.49 532.949 273.322 533.91 274.412C534.883 275.502 535.633 276.82 536.16 278.367C536.699 279.902 536.969 281.648 536.969 283.605ZM531.643 284.818V283.57C531.643 282.211 531.52 281.016 531.273 279.984C531.027 278.953 530.664 278.086 530.184 277.383C529.703 276.68 529.117 276.152 528.426 275.801C527.734 275.438 526.943 275.256 526.053 275.256C525.162 275.256 524.371 275.438 523.68 275.801C523 276.152 522.42 276.68 521.939 277.383C521.471 278.086 521.113 278.953 520.867 279.984C520.621 281.016 520.498 282.211 520.498 283.57V284.818C520.498 286.166 520.621 287.361 520.867 288.404C521.113 289.436 521.477 290.309 521.957 291.023C522.438 291.727 523.023 292.26 523.715 292.623C524.406 292.986 525.197 293.168 526.088 293.168C526.979 293.168 527.77 292.986 528.461 292.623C529.152 292.26 529.732 291.727 530.201 291.023C530.67 290.309 531.027 289.436 531.273 288.404C531.52 287.361 531.643 286.166 531.643 284.818ZM551.014 271.406V297H545.758V271.406H551.014ZM558.889 271.406V275.537H538.006V271.406H558.889ZM582.426 283.605V284.818C582.426 286.764 582.162 288.51 581.635 290.057C581.107 291.604 580.363 292.922 579.402 294.012C578.441 295.09 577.293 295.916 575.957 296.49C574.633 297.064 573.162 297.352 571.545 297.352C569.939 297.352 568.469 297.064 567.133 296.49C565.809 295.916 564.66 295.09 563.688 294.012C562.715 292.922 561.959 291.604 561.42 290.057C560.893 288.51 560.629 286.764 560.629 284.818V283.605C560.629 281.648 560.893 279.902 561.42 278.367C561.947 276.82 562.691 275.502 563.652 274.412C564.625 273.322 565.773 272.49 567.098 271.916C568.434 271.342 569.904 271.055 571.51 271.055C573.127 271.055 574.598 271.342 575.922 271.916C577.258 272.49 578.406 273.322 579.367 274.412C580.34 275.502 581.09 276.82 581.617 278.367C582.156 279.902 582.426 281.648 582.426 283.605ZM577.1 284.818V283.57C577.1 282.211 576.977 281.016 576.73 279.984C576.484 278.953 576.121 278.086 575.641 277.383C575.16 276.68 574.574 276.152 573.883 275.801C573.191 275.438 572.4 275.256 571.51 275.256C570.619 275.256 569.828 275.438 569.137 275.801C568.457 276.152 567.877 276.68 567.396 277.383C566.928 278.086 566.57 278.953 566.324 279.984C566.078 281.016 565.955 282.211 565.955 283.57V284.818C565.955 286.166 566.078 287.361 566.324 288.404C566.57 289.436 566.934 290.309 567.414 291.023C567.895 291.727 568.48 292.26 569.172 292.623C569.863 292.986 570.654 293.168 571.545 293.168C572.436 293.168 573.227 292.986 573.918 292.623C574.609 292.26 575.189 291.727 575.658 291.023C576.127 290.309 576.484 289.436 576.73 288.404C576.977 287.361 577.1 286.166 577.1 284.818ZM222.391 334.887V339H203.951V334.887H222.391ZM205.516 334.887V345.275H200.559L200.277 334.887H205.516ZM226.188 334.887L225.73 345.293H220.896V334.887H226.188ZM219.49 313.406V317.537H207.168V313.406H219.49ZM223.252 313.406V339H217.996V313.406H223.252ZM206.518 313.406H211.791L211.105 323.83C211 325.553 210.812 327.076 210.543 328.4C210.285 329.713 209.969 330.867 209.594 331.863C209.23 332.859 208.826 333.732 208.381 334.482C207.936 335.221 207.467 335.865 206.975 336.416C206.482 336.955 205.984 337.436 205.48 337.857C204.977 338.268 204.484 338.648 204.004 339H200.98V334.887H202.158C202.498 334.605 202.855 334.219 203.23 333.727C203.617 333.234 203.98 332.572 204.32 331.74C204.672 330.896 204.977 329.83 205.234 328.541C205.504 327.252 205.703 325.682 205.832 323.83L206.518 313.406ZM246.086 334.887V339H232.463V334.887H246.086ZM234.186 313.406V339H228.912V313.406H234.186ZM244.311 323.83V327.838H232.463V323.83H244.311ZM246.068 313.406V317.537H232.463V313.406H246.068ZM260.957 313.406V339H255.701V313.406H260.957ZM268.832 313.406V317.537H247.949V313.406H268.832ZM286.182 330.51H291.438C291.332 332.232 290.857 333.762 290.014 335.098C289.182 336.434 288.016 337.477 286.516 338.227C285.027 338.977 283.234 339.352 281.137 339.352C279.496 339.352 278.025 339.07 276.725 338.508C275.424 337.934 274.311 337.113 273.385 336.047C272.471 334.98 271.773 333.691 271.293 332.18C270.812 330.668 270.572 328.975 270.572 327.1V325.324C270.572 323.449 270.818 321.756 271.311 320.244C271.814 318.721 272.529 317.426 273.455 316.359C274.393 315.293 275.512 314.473 276.812 313.898C278.113 313.324 279.566 313.037 281.172 313.037C283.305 313.037 285.104 313.424 286.568 314.197C288.045 314.971 289.188 316.037 289.996 317.396C290.816 318.756 291.309 320.303 291.473 322.037H286.199C286.141 321.006 285.936 320.133 285.584 319.418C285.232 318.691 284.699 318.146 283.984 317.783C283.281 317.408 282.344 317.221 281.172 317.221C280.293 317.221 279.525 317.385 278.869 317.713C278.213 318.041 277.662 318.539 277.217 319.207C276.771 319.875 276.438 320.719 276.215 321.738C276.004 322.746 275.898 323.93 275.898 325.289V327.1C275.898 328.424 275.998 329.59 276.197 330.598C276.396 331.594 276.701 332.438 277.111 333.129C277.533 333.809 278.072 334.324 278.729 334.676C279.396 335.016 280.199 335.186 281.137 335.186C282.238 335.186 283.146 335.01 283.861 334.658C284.576 334.307 285.121 333.785 285.496 333.094C285.883 332.402 286.111 331.541 286.182 330.51ZM300.191 313.406V339H294.918V313.406H300.191ZM315.273 313.406L305.465 328.436H299.014L298.346 323.742H302.652L308.875 313.406H315.273ZM309.842 339L302.67 327.557L306.326 323.795L316.1 339H309.842ZM338.635 325.605V326.818C338.635 328.764 338.371 330.51 337.844 332.057C337.316 333.604 336.572 334.922 335.611 336.012C334.65 337.09 333.502 337.916 332.166 338.49C330.842 339.064 329.371 339.352 327.754 339.352C326.148 339.352 324.678 339.064 323.342 338.49C322.018 337.916 320.869 337.09 319.896 336.012C318.924 334.922 318.168 333.604 317.629 332.057C317.102 330.51 316.838 328.764 316.838 326.818V325.605C316.838 323.648 317.102 321.902 317.629 320.367C318.156 318.82 318.9 317.502 319.861 316.412C320.834 315.322 321.982 314.49 323.307 313.916C324.643 313.342 326.113 313.055 327.719 313.055C329.336 313.055 330.807 313.342 332.131 313.916C333.467 314.49 334.615 315.322 335.576 316.412C336.549 317.502 337.299 318.82 337.826 320.367C338.365 321.902 338.635 323.648 338.635 325.605ZM333.309 326.818V325.57C333.309 324.211 333.186 323.016 332.939 321.984C332.693 320.953 332.33 320.086 331.85 319.383C331.369 318.68 330.783 318.152 330.092 317.801C329.4 317.438 328.609 317.256 327.719 317.256C326.828 317.256 326.037 317.438 325.346 317.801C324.666 318.152 324.086 318.68 323.605 319.383C323.137 320.086 322.779 320.953 322.533 321.984C322.287 323.016 322.164 324.211 322.164 325.57V326.818C322.164 328.166 322.287 329.361 322.533 330.404C322.779 331.436 323.143 332.309 323.623 333.023C324.104 333.727 324.689 334.26 325.381 334.623C326.072 334.986 326.863 335.168 327.754 335.168C328.645 335.168 329.436 334.986 330.127 334.623C330.818 334.26 331.398 333.727 331.867 333.023C332.336 332.309 332.693 331.436 332.939 330.404C333.186 329.361 333.309 328.166 333.309 326.818ZM359.236 313.406V317.537H347.705V339H342.449V313.406H359.236ZM382.334 325.605V326.818C382.334 328.764 382.07 330.51 381.543 332.057C381.016 333.604 380.271 334.922 379.311 336.012C378.35 337.09 377.201 337.916 375.865 338.49C374.541 339.064 373.07 339.352 371.453 339.352C369.848 339.352 368.377 339.064 367.041 338.49C365.717 337.916 364.568 337.09 363.596 336.012C362.623 334.922 361.867 333.604 361.328 332.057C360.801 330.51 360.537 328.764 360.537 326.818V325.605C360.537 323.648 360.801 321.902 361.328 320.367C361.855 318.82 362.6 317.502 363.561 316.412C364.533 315.322 365.682 314.49 367.006 313.916C368.342 313.342 369.812 313.055 371.418 313.055C373.035 313.055 374.506 313.342 375.83 313.916C377.166 314.49 378.314 315.322 379.275 316.412C380.248 317.502 380.998 318.82 381.525 320.367C382.064 321.902 382.334 323.648 382.334 325.605ZM377.008 326.818V325.57C377.008 324.211 376.885 323.016 376.639 321.984C376.393 320.953 376.029 320.086 375.549 319.383C375.068 318.68 374.482 318.152 373.791 317.801C373.1 317.438 372.309 317.256 371.418 317.256C370.527 317.256 369.736 317.438 369.045 317.801C368.365 318.152 367.785 318.68 367.305 319.383C366.836 320.086 366.479 320.953 366.232 321.984C365.986 323.016 365.863 324.211 365.863 325.57V326.818C365.863 328.166 365.986 329.361 366.232 330.404C366.479 331.436 366.842 332.309 367.322 333.023C367.803 333.727 368.389 334.26 369.08 334.623C369.771 334.986 370.562 335.168 371.453 335.168C372.344 335.168 373.135 334.986 373.826 334.623C374.518 334.26 375.098 333.727 375.566 333.023C376.035 332.309 376.393 331.436 376.639 330.404C376.885 329.361 377.008 328.166 377.008 326.818ZM409.932 330.51H415.188C415.082 332.232 414.607 333.762 413.764 335.098C412.932 336.434 411.766 337.477 410.266 338.227C408.777 338.977 406.984 339.352 404.887 339.352C403.246 339.352 401.775 339.07 400.475 338.508C399.174 337.934 398.061 337.113 397.135 336.047C396.221 334.98 395.523 333.691 395.043 332.18C394.562 330.668 394.322 328.975 394.322 327.1V325.324C394.322 323.449 394.568 321.756 395.061 320.244C395.564 318.721 396.279 317.426 397.205 316.359C398.143 315.293 399.262 314.473 400.562 313.898C401.863 313.324 403.316 313.037 404.922 313.037C407.055 313.037 408.854 313.424 410.318 314.197C411.795 314.971 412.938 316.037 413.746 317.396C414.566 318.756 415.059 320.303 415.223 322.037H409.949C409.891 321.006 409.686 320.133 409.334 319.418C408.982 318.691 408.449 318.146 407.734 317.783C407.031 317.408 406.094 317.221 404.922 317.221C404.043 317.221 403.275 317.385 402.619 317.713C401.963 318.041 401.412 318.539 400.967 319.207C400.521 319.875 400.188 320.719 399.965 321.738C399.754 322.746 399.648 323.93 399.648 325.289V327.1C399.648 328.424 399.748 329.59 399.947 330.598C400.146 331.594 400.451 332.438 400.861 333.129C401.283 333.809 401.822 334.324 402.479 334.676C403.146 335.016 403.949 335.186 404.887 335.186C405.988 335.186 406.896 335.01 407.611 334.658C408.326 334.307 408.871 333.785 409.246 333.094C409.633 332.402 409.861 331.541 409.932 330.51ZM429.057 317.783L422.096 339H416.488L425.998 313.406H429.566L429.057 317.783ZM434.84 339L427.861 317.783L427.299 313.406H430.902L440.465 339H434.84ZM434.523 329.473V333.604H421.006V329.473H434.523ZM463.492 334.887V339H445.053V334.887H463.492ZM446.617 334.887V345.275H441.66L441.379 334.887H446.617ZM467.289 334.887L466.832 345.293H461.998V334.887H467.289ZM460.592 313.406V317.537H448.27V313.406H460.592ZM464.354 313.406V339H459.098V313.406H464.354ZM447.619 313.406H452.893L452.207 323.83C452.102 325.553 451.914 327.076 451.645 328.4C451.387 329.713 451.07 330.867 450.695 331.863C450.332 332.859 449.928 333.732 449.482 334.482C449.037 335.221 448.568 335.865 448.076 336.416C447.584 336.955 447.086 337.436 446.582 337.857C446.078 338.268 445.586 338.648 445.105 339H442.082V334.887H443.26C443.6 334.605 443.957 334.219 444.332 333.727C444.719 333.234 445.082 332.572 445.422 331.74C445.773 330.896 446.078 329.83 446.336 328.541C446.605 327.252 446.805 325.682 446.934 323.83L447.619 313.406ZM480.701 317.783L473.74 339H468.133L477.643 313.406H481.211L480.701 317.783ZM486.484 339L479.506 317.783L478.943 313.406H482.547L492.109 339H486.484ZM486.168 329.473V333.604H472.65V329.473H486.168Z" fill="white"/>
</svg>
