<?xml version="1.0" encoding="utf-8"?>
<svg version="1.1" id="Слой_1" xmlns="http://www.w3.org/2000/svg" xmlns:xlink="http://www.w3.org/1999/xlink" x="0px" y="0px" viewBox="0 0 35.9 30.7" style="enable-background:new 0 0 35.9 30.7;" xml:space="preserve">
	<style type="text/css">
		.st0{fill:#014C97;}
		.st1{fill:#E2251D;}
	</style>
	<path class="st0" d="M14.1,24.8c-4.8-2.2-8-6.1-9-10.3C4.6,12.1,5.5,10.6,6,9.7c0.6-0.9,1.3-1,1.3-1S6.6,8.3,5.6,8.2
	C4.4,8,2.7,8.2,1.7,9.7c-0.8,1.8-1.2,3.8-1.2,5.8c0,4,1.5,8.6,6.1,12.2c1.3,0.9,2.7,1.7,4.2,2.2c0.2,0.1,0.4,0.1,0.6,0.2
	c0.7,0.2,1.3,0.3,2,0.4h0.1c0.2,0,0.4,0,0.6,0.1c0.3,0,0.6,0.1,0.9,0.1c0.1,0,0.3,0,0.4,0c0,0,0.1,0,0.2,0c0.3,0,0.6,0,0.8,0l0,0
	c0.3,0,0.6,0,0.8-0.1h0.1c0.2,0,0.5-0.1,0.7-0.1c0.1,0,0.3,0,0.4-0.1c0,0,0,0,0.1,0c2.5-0.5,4.6-1.7,6.3-2.9
	c0.9-0.7,1.8-1.6,2.5-2.5C23.7,26.9,18.7,26.9,14.1,24.8L14.1,24.8z" />
	<path class="st0" d="M6,7.1c2.6-3.3,6.6-5.5,11.1-5.5c3.3,0,6.4,1.2,8.8,3.1c-2.7-2.5-6.3-4.1-10.3-4.1C10.3,0.6,5.7,3.3,3,7.4
	C3.8,7.2,4.9,6.9,6,7.1L6,7.1z" />
	<path class="st0" d="M14.8,23.6c1.9,1.1,4,1.7,6,1.9c0.9-0.2,1.7-0.5,2.4-0.9c2.9-1.8,11.5-13.7,11.5-13.7s-4.7-1-6.7,0.5
	s-3.5,3.8-5.8,6.4C20,20.3,19,21.9,17,22.4c-1.5,0.4-2.9,0.3-4.1,0C13.5,22.8,14.1,23.2,14.8,23.6L14.8,23.6z" />
	<path class="st1" d="M28.7,24.2c1.8-1.3,6-7,6-7s-3.2-1.7-6.1,0s-2.8,2.1-5.7,4.5s-5.1,2.7-6.7,2.5c-0.1,0-0.2,0-0.3,0
	C20.1,26.1,25.5,26.4,28.7,24.2z" />
	<path class="st0" d="M34.8,0.7c0,0-4.8-1.3-8.4,1.9C23.7,4.9,18,20.3,13.5,21.2c-0.9,0.2-1.6,0.2-2.1,0.1l0,0c0.8,0.1,1.6,0,2.6-0.2
	C18.5,20.2,24.4,6,27.2,3.8s6-1.6,6-1.6l-2.6,5L34.8,0.7z" />
</svg>
