<?xml version="1.0" encoding="utf-8"?>
<!-- Generator: Adobe Illustrator 19.2.1, SVG Export Plug-In . SVG Version: 6.00 Build 0)  -->
<svg version="1.1" id="Слой_1" xmlns="http://www.w3.org/2000/svg" xmlns:xlink="http://www.w3.org/1999/xlink" x="0px" y="0px"
	 viewBox="0 0 205.5 39.2" style="enable-background:new 0 0 205.5 39.2;" xml:space="preserve">
<style type="text/css">
	.st0{fill-rule:evenodd;clip-rule:evenodd;fill:#004A97;}
	.st1{fill-rule:evenodd;clip-rule:evenodd;fill:#E2231A;}
</style>
<g>
	<path class="st0" d="M104.8,26.4c0-0.1,0.1-0.3,0.3-0.3h4.4l-0.4,3.1h-4.4c-0.1,0-0.2-0.1-0.2-0.2L104.8,26.4L104.8,26.4z
		 M102.3,29.3c-0.1,0.9,0.5,1.7,1.4,1.8l-2.2,3.1h2.4l2.2-3.1h2.6l-0.4,3.1h2.1l1.2-10.1h-7c-1,0-2,0.8-2.1,1.9L102.3,29.3z"/>
	<path class="st0" d="M55.6,30.7c0-0.3-0.2-0.5-0.4-0.5H51l-0.3,2.2h4.1c0.3,0,0.5-0.2,0.6-0.5L55.6,30.7L55.6,30.7z M56,26.7
		c0-0.3-0.2-0.5-0.4-0.5h-4.1l-0.3,2.1h4.1c0.3,0,0.5-0.2,0.6-0.5L56,26.7L56,26.7z M57.1,29.2c0.5,0.2,0.6,0.7,0.5,1.4l-0.2,1.8
		c-0.1,1-1.1,1.9-2,1.9h-6.9l1.2-10.1h6.9c1,0,1.7,0.8,1.6,1.9L58,27.9C57.9,28.6,57.7,28.9,57.1,29.2z"/>
	<polygon class="st0" points="171.6,24.2 163.4,24.2 162.2,34.3 164.3,34.3 165.3,26.2 171.4,26.2 	"/>
	<polygon class="st0" points="67.4,32.3 67.2,34.3 58.7,34.3 60,24.2 68.4,24.2 68.2,26.2 61.8,26.2 61.6,28.3 67.4,28.3 67.2,30.2 
		61.3,30.2 61.1,32.3 	"/>
	<polygon class="st0" points="97.3,34.3 97.8,30.2 93.1,30.2 92.5,34.3 90.4,34.3 91.7,24.2 93.8,24.2 93.3,28.3 98,28.3 98.5,24.2 
		100.6,24.2 99.4,34.3 	"/>
	<path class="st0" d="M76.6,26.4c0-0.1-0.1-0.3-0.2-0.3H72l-0.4,3H76c0.1,0,0.3-0.1,0.3-0.2L76.6,26.4L76.6,26.4z M78.4,29.3
		c-0.1,1-1,1.9-2.1,1.9h-4.9L71,34.3h-2.1l1.2-10.1h7c1,0,1.8,0.8,1.6,1.9L78.4,29.3z"/>
	<path class="st0" d="M80.2,24.2h2.3l1.4,4h1.3l2.4-4H90L87.2,29c0,0.1-0.1,0.1-0.1,0.2c0,0.1,0,0.2,0,0.2l1.6,4.8h-2.3L85,30.2
		h-1.3l-2.4,4.1H79l2.8-4.8c0-0.1,0.1-0.1,0.1-0.2c0-0.1,0-0.1,0-0.2L80.2,24.2z"/>
	<path class="st0" d="M148,31.7c0,0.3-0.4,0.6-0.7,0.6h-3.5c-0.3,0-0.6-0.3-0.6-0.6l0.6-4.9c0-0.4,0.4-0.6,0.7-0.6h3.5
		c0.4,0,0.6,0.3,0.6,0.6L148,31.7L148,31.7z M148.6,24.2h-4.3c-1.3,0-2.5,1-2.7,2.4l-0.6,5.3c-0.2,1.3,0.8,2.4,2.1,2.4h4.3
		c1.3,0,2.5-1.1,2.7-2.4l0.1-0.7l0.1-0.4l0.4-2.9l0.1-1.2C150.9,25.3,150,24.2,148.6,24.2z"/>
	<path class="st0" d="M155.7,12.4h2.6l0.3-2.1l0.2-2.1h-2.6L155.7,12.4L155.7,12.4z M163.3,12.4h2.3c0.2,0,0.4-0.1,0.4-0.3l0.5-3.9
		h-2.6L163.3,12.4L163.3,12.4z M157.4,19.3l0.4-2.8H153c-1.6,0-2.7-1.2-2.5-2.6l0.9-7.1c0.1-0.6,0.4-1.3,0.9-1.7
		c0.6-0.5,1.4-0.8,2.2-0.8h12.6l2,0c0.8,0,1.5,0.3,2,0.8c0.4,0.5,0.6,1.1,0.5,1.7l-0.9,7.1c-0.2,1.4-1.6,2.6-3.2,2.6h-4.8l-0.4,2.8
		H157.4z"/>
	<polygon class="st0" points="50.8,19.2 52.3,8.1 47.2,8.1 49.7,4.1 61.8,4.1 61.3,8.1 57.2,8.1 55.8,19.2 	"/>
	<polygon class="st0" points="175.8,19.2 177.2,8.1 172.8,8.1 173.3,4.1 188.2,4.1 185.8,8.1 182.2,8.1 180.7,19.2 	"/>
	<path class="st0" d="M81.8,12.8h3l-0.5-4.2h-1L81.8,12.8L81.8,12.8z M85.5,19.2l-0.3-2.6l-4.9,0.1l-0.9,2.6h-5.1l5.2-14.3
		c0.2-0.4,0.6-0.7,1.1-0.7h7.3c0.5,0,0.9,0.3,0.9,0.7l1.6,14.3H85.5z"/>
	<polygon class="st0" points="99.9,19.2 100.5,13.8 97.7,13.8 97,19.2 92,19.2 93.9,4.1 98.9,4.1 98.2,9.8 101,9.8 101.8,4.1 
		107.1,4.1 105.2,19.2 	"/>
	<polygon class="st0" points="129,19.2 129.7,13.8 126.9,13.8 126.2,19.2 121.1,19.2 123.1,4.1 128.1,4.1 127.3,9.8 130.2,9.8 
		130.9,4.1 136.2,4.1 134.3,19.2 	"/>
	<path class="st0" d="M110.4,19.3c-1,0-2-0.4-2.6-1.1c-0.5-0.6-0.8-1.4-0.7-2.3l1.1-8.3c0.1-0.8,0.5-1.6,1.2-2.3
		c0.8-0.7,1.9-1.1,2.9-1.1h5.4c1.7,0,3.6,0.7,3.4,2.8l-0.3,2.6h-5l0.2-1.5h-0.3c-0.3,0-2.3,0-2.3,0l-0.3,0l0,0.3
		c0,0.1-0.3,2.1-0.5,3.7c-0.2,1.5-0.3,2.4-0.3,2.5l0,0.3l2.9,0l0.2-1.5h5l-0.3,2.4c-0.3,1.9-2.1,3.4-4.2,3.4H110.4z"/>
	<polygon class="st0" points="136,19.3 137.9,4.2 150.2,4.2 149.8,8.1 142.5,8.1 142.2,10 149.5,10 149.1,13.4 141.8,13.4 
		141.5,15.3 148.8,15.3 148.3,19.3 	"/>
	<path class="st0" d="M68,8.9l-0.5,3.5h2.2c0.2,0,0.4-0.2,0.4-0.4l0.5-3.9h-2.6L68,8.9L68,8.9z M61.6,19.2l0.4-2.5l1.4-12.5l10,0
		c0.8,0,1.5,0.3,2,0.8c0.4,0.5,0.6,1.1,0.5,1.7L75,13.8c-0.2,1.4-1.6,2.6-3.2,2.6H67l-0.4,2.8H61.6z"/>
	<path class="st0" d="M192.6,15.2h2.3c0.3,0,0.3,0,0.8-3.7l0-0.3h-2.6L192.6,15.2L192.6,15.2z M187.1,19.2l1.6-12.3l0.4-2.8l5,0
		l-0.4,3.1h4.8c1.6,0,2.7,1.2,2.5,2.6l-0.9,6.8c-0.1,0.6-0.4,1.3-0.9,1.7c-0.6,0.5-1.4,0.8-2.2,0.8H187.1z"/>
	<path class="st0" d="M15.7,28.4c-4.8-2.2-8-6.1-9-10.3c-0.5-2.4,0.4-3.9,0.9-4.8c0.6-0.9,1.3-1,1.3-1s-0.7-0.4-1.7-0.5
		c-1.2-0.2-2.9,0-3.9,1.5c-0.8,1.8-1.2,3.8-1.2,5.8c0,4,1.5,8.6,6.1,12.2c1.3,0.9,2.7,1.7,4.2,2.2c0.2,0.1,0.4,0.1,0.6,0.2
		c0.7,0.2,1.3,0.3,2,0.4c0,0,0.1,0,0.1,0c0.2,0,0.4,0,0.6,0.1c0.3,0,0.6,0.1,0.9,0.1c0.1,0,0.3,0,0.4,0c0,0,0.1,0,0.2,0
		c0.3,0,0.6,0,0.8,0c0,0,0,0,0,0c0.3,0,0.6,0,0.8-0.1c0,0,0.1,0,0.1,0c0.2,0,0.5-0.1,0.7-0.1c0.1,0,0.3,0,0.4-0.1c0,0,0,0,0.1,0
		c2.5-0.5,4.6-1.7,6.3-2.9c0.9-0.7,1.8-1.6,2.5-2.5C25.3,30.5,20.3,30.5,15.7,28.4L15.7,28.4z"/>
	<path class="st0" d="M7.6,10.7c2.6-3.3,6.6-5.5,11.1-5.5c3.3,0,6.4,1.2,8.8,3.1c-2.7-2.5-6.3-4.1-10.3-4.1c-5.3,0-9.9,2.7-12.6,6.8
		C5.4,10.8,6.5,10.5,7.6,10.7L7.6,10.7z"/>
	<path class="st0" d="M16.4,27.2c1.9,1.1,4,1.7,6,1.9c0.9-0.2,1.7-0.5,2.4-0.9c2.9-1.8,11.5-13.7,11.5-13.7s-4.7-1-6.7,0.5
		c-2,1.5-3.5,3.8-5.8,6.4c-2.2,2.5-3.2,4.1-5.2,4.6c-1.5,0.4-2.9,0.3-4.1,0C15.1,26.4,15.7,26.8,16.4,27.2L16.4,27.2z"/>
	<path class="st1" d="M30.3,27.8c1.8-1.3,6-7,6-7s-3.2-1.7-6.1,0c-2.9,1.7-2.8,2.1-5.7,4.5c-2.9,2.4-5.1,2.7-6.7,2.5
		c-0.1,0-0.2,0-0.3,0C21.7,29.7,27.1,30,30.3,27.8z"/>
	<path class="st0" d="M36.4,4.3c0,0-4.8-1.3-8.4,1.9c-2.7,2.3-8.4,17.7-12.9,18.6c-0.9,0.2-1.6,0.2-2.1,0.1c0,0,0,0,0,0
		c0.8,0.1,1.6,0,2.6-0.2c4.5-0.9,10.4-15.1,13.2-17.3c2.8-2.2,6-1.6,6-1.6l-2.6,5L36.4,4.3z"/>
	<path class="st0" d="M158.7,34.2h2.2l-1.6-9.5c-0.1-0.3-0.3-0.6-0.7-0.6h-3.3c-0.4,0-0.7,0.2-0.8,0.6l-3.9,9.5h2.2l3.3-7.8h1.3
		L158.7,34.2z"/>
	<path class="st0" d="M177.5,26.3H175l-1.4,4.1h4.3L177.5,26.3L177.5,26.3z M178.3,34.3l-0.1-1.7h-5.2l-0.6,1.7h-2.2l3.2-9.4
		c0.1-0.4,0.5-0.6,0.9-0.6h4.7c0.4,0,0.7,0.3,0.7,0.6l0.9,9.4H178.3z"/>
	<path class="st0" d="M116,26.4c0-0.1,0.1-0.3,0.3-0.3h4.4l-0.4,3.1h-4.4c-0.1,0-0.2-0.1-0.2-0.2L116,26.4L116,26.4z M113.5,29.3
		c-0.1,0.9,0.5,1.7,1.4,1.8l-2.2,3.1h2.4l2.2-3.1h2.6l-0.4,3.1h2.1l1.2-10.1h-7c-1,0-2,0.8-2.1,1.9L113.5,29.3z"/>
	<path class="st0" d="M137.4,30.7c0-0.3-0.2-0.5-0.4-0.5h-4.1l-0.3,2.2h4.1c0.3,0,0.5-0.2,0.6-0.5L137.4,30.7L137.4,30.7z
		 M137.9,26.7c0-0.3-0.2-0.5-0.4-0.5h-4.1l-0.3,2.1h4.1c0.3,0,0.5-0.2,0.6-0.5L137.9,26.7L137.9,26.7z M139,29.2
		c0.5,0.2,0.6,0.7,0.5,1.4l-0.2,1.8c-0.1,1-1.1,1.9-2,1.9h-6.9l1.2-10.1h6.9c1,0,1.7,0.8,1.6,1.9l-0.2,1.8
		C139.8,28.6,139.5,28.9,139,29.2z"/>
</g>
</svg>
