<svg width="17" height="29" viewBox="0 0 17 29" fill="none" xmlns="http://www.w3.org/2000/svg">
<path d="M15.5317 13.947C15.4838 13.8075 15.4042 13.6763 15.2929 13.565L15.2862 13.5583L2.56497 0.837144C2.17444 0.44662 1.54128 0.44662 1.15075 0.837144C0.760231 1.22767 0.760231 1.86083 1.15075 2.25136L13.1715 14.2721L1.15073 26.2929C0.760201 26.6834 0.7602 27.3166 1.15073 27.7071C1.54125 28.0976 2.17441 28.0976 2.56494 27.7071L15.2833 14.9887C15.2865 14.9856 15.2897 14.9824 15.2929 14.9793C15.5721 14.7001 15.6517 14.2969 15.5317 13.947Z" fill="#005596"/>
<path d="M15.2929 13.565L15.6464 13.2114L15.6448 13.2098L15.2929 13.565ZM15.5317 13.947L15.0587 14.1092L15.0587 14.1092L15.5317 13.947ZM15.2862 13.5583L14.9326 13.9119L14.9343 13.9135L15.2862 13.5583ZM2.56497 0.837144L2.21141 1.1907L2.56497 0.837144ZM1.15075 0.837144L0.797202 0.48359L0.797201 0.48359L1.15075 0.837144ZM1.15075 2.25136L0.797201 2.60491L1.15075 2.25136ZM13.1715 14.2721L13.5251 14.6257L13.8786 14.2721L13.5251 13.9186L13.1715 14.2721ZM1.15073 26.2929L0.797171 25.9393L1.15073 26.2929ZM1.15073 27.7071L1.50428 27.3536L1.50428 27.3536L1.15073 27.7071ZM2.56494 27.7071L2.21138 27.3536L2.56494 27.7071ZM15.2833 14.9887L14.9344 14.6305L14.9298 14.6351L15.2833 14.9887ZM15.2929 14.9793L14.9393 14.6257L14.9393 14.6257L15.2929 14.9793ZM14.9393 13.9185C14.9956 13.9749 15.035 14.0401 15.0587 14.1092L16.0047 13.7849C15.9327 13.5748 15.8128 13.3778 15.6464 13.2114L14.9393 13.9185ZM14.9343 13.9135L14.9409 13.9202L15.6448 13.2098L15.6381 13.2032L14.9343 13.9135ZM2.21141 1.1907L14.9326 13.9119L15.6397 13.2048L2.91852 0.48359L2.21141 1.1907ZM1.50431 1.1907C1.69957 0.995435 2.01615 0.995437 2.21141 1.1907L2.91852 0.48359C2.33274 -0.102196 1.38299 -0.102194 0.797202 0.48359L1.50431 1.1907ZM1.50431 1.8978C1.30905 1.70254 1.30905 1.38596 1.50431 1.1907L0.797201 0.48359C0.211415 1.06938 0.211415 2.01912 0.797201 2.60491L1.50431 1.8978ZM13.5251 13.9186L1.50431 1.8978L0.797201 2.60491L12.818 14.6257L13.5251 13.9186ZM1.50428 26.6464L13.5251 14.6257L12.818 13.9186L0.797171 25.9393L1.50428 26.6464ZM1.50428 27.3536C1.30902 27.1583 1.30902 26.8417 1.50428 26.6464L0.797171 25.9393C0.211387 26.5251 0.211385 27.4749 0.797173 28.0607L1.50428 27.3536ZM2.21138 27.3536C2.01612 27.5488 1.69954 27.5488 1.50428 27.3536L0.797172 28.0607C1.38296 28.6464 2.33271 28.6464 2.91849 28.0607L2.21138 27.3536ZM14.9298 14.6351L2.21138 27.3536L2.91849 28.0607L15.6369 15.3423L14.9298 14.6351ZM14.9393 14.6257C14.9377 14.6273 14.9361 14.6289 14.9345 14.6305L15.6322 15.3469C15.637 15.3422 15.6417 15.3375 15.6465 15.3328L14.9393 14.6257ZM15.0587 14.1092C15.1191 14.2854 15.0784 14.4867 14.9393 14.6257L15.6464 15.3328C16.0657 14.9135 16.1842 14.3084 16.0047 13.7849L15.0587 14.1092Z" fill="#005596"/>
</svg>
