<svg width="48" height="48" viewBox="0 0 48 48" fill="none" xmlns="http://www.w3.org/2000/svg">
<path d="M36 14.32C35.88 14.3 35.74 14.3 35.62 14.32C32.86 14.22 30.66 11.96 30.66 9.16C30.66 6.3 32.96 4 35.82 4C38.68 4 40.98 6.32 40.98 9.16C40.96 11.96 38.76 14.22 36 14.32Z" stroke="#005596" stroke-width="3.5" stroke-linecap="round" stroke-linejoin="round"/>
<path d="M33.94 28.8801C36.68 29.3401 39.7 28.8601 41.82 27.4401C44.64 25.5601 44.64 22.4801 41.82 20.6001C39.68 19.1801 36.62 18.7001 33.88 19.1801" stroke="#005596" stroke-width="3.5" stroke-linecap="round" stroke-linejoin="round"/>
<path d="M11.94 14.32C12.06 14.3 12.2 14.3 12.32 14.32C15.08 14.22 17.28 11.96 17.28 9.16C17.28 6.3 14.98 4 12.12 4C9.26 4 6.96 6.32 6.96 9.16C6.98 11.96 9.18 14.22 11.94 14.32Z" stroke="#005596" stroke-width="3.5" stroke-linecap="round" stroke-linejoin="round"/>
<path d="M14 28.8801C11.26 29.3401 8.24 28.8601 6.12 27.4401C3.3 25.5601 3.3 22.4801 6.12 20.6001C8.26 19.1801 11.32 18.7001 14.06 19.1801" stroke="#005596" stroke-width="3.5" stroke-linecap="round" stroke-linejoin="round"/>
<path d="M24 29.2599C23.88 29.2399 23.74 29.2399 23.62 29.2599C20.86 29.1599 18.66 26.8999 18.66 24.0999C18.66 21.2399 20.96 18.9399 23.82 18.9399C26.68 18.9399 28.98 21.2599 28.98 24.0999C28.96 26.8999 26.76 29.1799 24 29.2599Z" stroke="#005596" stroke-width="3.5" stroke-linecap="round" stroke-linejoin="round"/>
<path d="M18.18 35.56C15.36 37.44 15.36 40.52 18.18 42.4C21.38 44.54 26.62 44.54 29.82 42.4C32.64 40.52 32.64 37.44 29.82 35.56C26.64 33.44 21.38 33.44 18.18 35.56Z" stroke="#005596" stroke-width="3.5" stroke-linecap="round" stroke-linejoin="round"/>
</svg>
