<svg width="691" height="408" viewBox="0 0 691 408" fill="none" xmlns="http://www.w3.org/2000/svg">
<rect width="691" height="408" fill="#005596"/>
<path d="M119.91 284.73H115.938V281.936H119.102C120.027 281.936 120.777 281.795 121.352 281.514C121.926 281.221 122.348 280.811 122.617 280.283C122.887 279.756 123.021 279.135 123.021 278.42C123.021 277.834 122.869 277.295 122.564 276.803C122.271 276.311 121.814 275.918 121.193 275.625C120.572 275.32 119.781 275.168 118.82 275.168C118.094 275.168 117.432 275.297 116.834 275.555C116.236 275.812 115.762 276.176 115.41 276.645C115.059 277.102 114.883 277.658 114.883 278.314H109.627C109.627 277.189 109.867 276.182 110.348 275.291C110.84 274.389 111.508 273.627 112.352 273.006C113.207 272.373 114.191 271.893 115.305 271.564C116.418 271.236 117.59 271.072 118.82 271.072C120.262 271.072 121.562 271.23 122.723 271.547C123.883 271.852 124.879 272.309 125.711 272.918C126.543 273.527 127.182 274.283 127.627 275.186C128.072 276.088 128.295 277.137 128.295 278.332C128.295 279.211 128.096 280.037 127.697 280.811C127.299 281.584 126.73 282.264 125.992 282.85C125.254 283.436 124.369 283.898 123.338 284.238C122.307 284.566 121.164 284.73 119.91 284.73ZM115.938 283.201H119.91C121.305 283.201 122.541 283.348 123.619 283.641C124.709 283.934 125.629 284.361 126.379 284.924C127.141 285.486 127.715 286.184 128.102 287.016C128.5 287.836 128.699 288.779 128.699 289.846C128.699 291.041 128.453 292.102 127.961 293.027C127.48 293.953 126.795 294.738 125.904 295.383C125.025 296.027 123.982 296.514 122.775 296.842C121.58 297.17 120.262 297.334 118.82 297.334C117.672 297.334 116.529 297.193 115.393 296.912C114.256 296.619 113.225 296.174 112.299 295.576C111.373 294.979 110.635 294.211 110.084 293.273C109.533 292.336 109.258 291.211 109.258 289.898H114.549C114.549 290.52 114.73 291.088 115.094 291.604C115.457 292.107 115.961 292.512 116.605 292.816C117.25 293.109 117.988 293.256 118.82 293.256C119.793 293.256 120.619 293.104 121.299 292.799C121.99 292.494 122.512 292.078 122.863 291.551C123.227 291.012 123.408 290.42 123.408 289.775C123.408 289.084 123.314 288.498 123.127 288.018C122.939 287.537 122.664 287.145 122.301 286.84C121.938 286.523 121.486 286.295 120.947 286.154C120.42 286.014 119.805 285.943 119.102 285.943H115.938V283.201ZM152.904 292.887V297H134.465V292.887H152.904ZM136.029 292.887V303.275H131.072L130.791 292.887H136.029ZM156.701 292.887L156.244 303.293H151.41V292.887H156.701ZM150.004 271.406V275.537H137.682V271.406H150.004ZM153.766 271.406V297H148.51V271.406H153.766ZM137.031 271.406H142.305L141.619 281.83C141.514 283.553 141.326 285.076 141.057 286.4C140.799 287.713 140.482 288.867 140.107 289.863C139.744 290.859 139.34 291.732 138.895 292.482C138.449 293.221 137.98 293.865 137.488 294.416C136.996 294.955 136.498 295.436 135.994 295.857C135.49 296.268 134.998 296.648 134.518 297H131.494V292.887H132.672C133.012 292.605 133.369 292.219 133.744 291.727C134.131 291.234 134.494 290.572 134.834 289.74C135.186 288.896 135.49 287.83 135.748 286.541C136.018 285.252 136.217 283.682 136.346 281.83L137.031 271.406ZM176.6 292.887V297H162.977V292.887H176.6ZM164.699 271.406V297H159.426V271.406H164.699ZM174.824 281.83V285.838H162.977V281.83H174.824ZM176.582 271.406V275.537H162.977V271.406H176.582ZM194.512 288.51H199.768C199.662 290.232 199.188 291.762 198.344 293.098C197.512 294.434 196.346 295.477 194.846 296.227C193.357 296.977 191.564 297.352 189.467 297.352C187.826 297.352 186.355 297.07 185.055 296.508C183.754 295.934 182.641 295.113 181.715 294.047C180.801 292.98 180.104 291.691 179.623 290.18C179.143 288.668 178.902 286.975 178.902 285.1V283.324C178.902 281.449 179.148 279.756 179.641 278.244C180.145 276.721 180.859 275.426 181.785 274.359C182.723 273.293 183.842 272.473 185.143 271.898C186.443 271.324 187.896 271.037 189.502 271.037C191.635 271.037 193.434 271.424 194.898 272.197C196.375 272.971 197.518 274.037 198.326 275.396C199.146 276.756 199.639 278.303 199.803 280.037H194.529C194.471 279.006 194.266 278.133 193.914 277.418C193.562 276.691 193.029 276.146 192.314 275.783C191.611 275.408 190.674 275.221 189.502 275.221C188.623 275.221 187.855 275.385 187.199 275.713C186.543 276.041 185.992 276.539 185.547 277.207C185.102 277.875 184.768 278.719 184.545 279.738C184.334 280.746 184.229 281.93 184.229 283.289V285.1C184.229 286.424 184.328 287.59 184.527 288.598C184.727 289.594 185.031 290.438 185.441 291.129C185.863 291.809 186.402 292.324 187.059 292.676C187.727 293.016 188.529 293.186 189.467 293.186C190.568 293.186 191.477 293.01 192.191 292.658C192.906 292.307 193.451 291.785 193.826 291.094C194.213 290.402 194.441 289.541 194.512 288.51ZM206.641 280.74H212.617C214.633 280.74 216.367 281.074 217.82 281.742C219.273 282.41 220.393 283.348 221.178 284.555C221.963 285.762 222.355 287.168 222.355 288.773C222.355 289.992 222.133 291.105 221.688 292.113C221.242 293.109 220.592 293.977 219.736 294.715C218.893 295.441 217.873 296.004 216.678 296.402C215.482 296.801 214.129 297 212.617 297H203.195V271.406H208.486V292.887H212.617C213.625 292.887 214.457 292.699 215.113 292.324C215.77 291.949 216.262 291.451 216.59 290.83C216.93 290.197 217.1 289.5 217.1 288.738C217.1 288.012 216.93 287.355 216.59 286.77C216.262 286.172 215.77 285.703 215.113 285.363C214.457 285.023 213.625 284.854 212.617 284.854H206.641V280.74ZM249.531 288.51H254.787C254.682 290.232 254.207 291.762 253.363 293.098C252.531 294.434 251.365 295.477 249.865 296.227C248.377 296.977 246.584 297.352 244.486 297.352C242.846 297.352 241.375 297.07 240.074 296.508C238.773 295.934 237.66 295.113 236.734 294.047C235.82 292.98 235.123 291.691 234.643 290.18C234.162 288.668 233.922 286.975 233.922 285.1V283.324C233.922 281.449 234.168 279.756 234.66 278.244C235.164 276.721 235.879 275.426 236.805 274.359C237.742 273.293 238.861 272.473 240.162 271.898C241.463 271.324 242.916 271.037 244.521 271.037C246.654 271.037 248.453 271.424 249.918 272.197C251.395 272.971 252.537 274.037 253.346 275.396C254.166 276.756 254.658 278.303 254.822 280.037H249.549C249.49 279.006 249.285 278.133 248.934 277.418C248.582 276.691 248.049 276.146 247.334 275.783C246.631 275.408 245.693 275.221 244.521 275.221C243.643 275.221 242.875 275.385 242.219 275.713C241.562 276.041 241.012 276.539 240.566 277.207C240.121 277.875 239.787 278.719 239.564 279.738C239.354 280.746 239.248 281.93 239.248 283.289V285.1C239.248 286.424 239.348 287.59 239.547 288.598C239.746 289.594 240.051 290.438 240.461 291.129C240.883 291.809 241.422 292.324 242.078 292.676C242.746 293.016 243.549 293.186 244.486 293.186C245.588 293.186 246.496 293.01 247.211 292.658C247.926 292.307 248.471 291.785 248.846 291.094C249.232 290.402 249.461 289.541 249.531 288.51ZM263.541 271.406V297H258.268V271.406H263.541ZM278.623 271.406L268.814 286.436H262.363L261.695 281.742H266.002L272.225 271.406H278.623ZM273.191 297L266.02 285.557L269.676 281.795L279.449 297H273.191ZM301.984 283.605V284.818C301.984 286.764 301.721 288.51 301.193 290.057C300.666 291.604 299.922 292.922 298.961 294.012C298 295.09 296.852 295.916 295.516 296.49C294.191 297.064 292.721 297.352 291.104 297.352C289.498 297.352 288.027 297.064 286.691 296.49C285.367 295.916 284.219 295.09 283.246 294.012C282.273 292.922 281.518 291.604 280.979 290.057C280.451 288.51 280.188 286.764 280.188 284.818V283.605C280.188 281.648 280.451 279.902 280.979 278.367C281.506 276.82 282.25 275.502 283.211 274.412C284.184 273.322 285.332 272.49 286.656 271.916C287.992 271.342 289.463 271.055 291.068 271.055C292.686 271.055 294.156 271.342 295.48 271.916C296.816 272.49 297.965 273.322 298.926 274.412C299.898 275.502 300.648 276.82 301.176 278.367C301.715 279.902 301.984 281.648 301.984 283.605ZM296.658 284.818V283.57C296.658 282.211 296.535 281.016 296.289 279.984C296.043 278.953 295.68 278.086 295.199 277.383C294.719 276.68 294.133 276.152 293.441 275.801C292.75 275.438 291.959 275.256 291.068 275.256C290.178 275.256 289.387 275.438 288.695 275.801C288.016 276.152 287.436 276.68 286.955 277.383C286.486 278.086 286.129 278.953 285.883 279.984C285.637 281.016 285.514 282.211 285.514 283.57V284.818C285.514 286.166 285.637 287.361 285.883 288.404C286.129 289.436 286.492 290.309 286.973 291.023C287.453 291.727 288.039 292.26 288.73 292.623C289.422 292.986 290.213 293.168 291.104 293.168C291.994 293.168 292.785 292.986 293.477 292.623C294.168 292.26 294.748 291.727 295.217 291.023C295.686 290.309 296.043 289.436 296.289 288.404C296.535 287.361 296.658 286.166 296.658 284.818ZM315.748 287.877H309.227V283.764H315.748C316.756 283.764 317.576 283.6 318.209 283.271C318.842 282.932 319.305 282.463 319.598 281.865C319.891 281.268 320.037 280.594 320.037 279.844C320.037 279.082 319.891 278.373 319.598 277.717C319.305 277.061 318.842 276.533 318.209 276.135C317.576 275.736 316.756 275.537 315.748 275.537H311.055V297H305.781V271.406H315.748C317.752 271.406 319.469 271.77 320.898 272.496C322.34 273.211 323.441 274.201 324.203 275.467C324.965 276.732 325.346 278.18 325.346 279.809C325.346 281.461 324.965 282.891 324.203 284.098C323.441 285.305 322.34 286.236 320.898 286.893C319.469 287.549 317.752 287.877 315.748 287.877ZM350.008 283.605V284.818C350.008 286.764 349.744 288.51 349.217 290.057C348.689 291.604 347.945 292.922 346.984 294.012C346.023 295.09 344.875 295.916 343.539 296.49C342.215 297.064 340.744 297.352 339.127 297.352C337.521 297.352 336.051 297.064 334.715 296.49C333.391 295.916 332.242 295.09 331.27 294.012C330.297 292.922 329.541 291.604 329.002 290.057C328.475 288.51 328.211 286.764 328.211 284.818V283.605C328.211 281.648 328.475 279.902 329.002 278.367C329.529 276.82 330.273 275.502 331.234 274.412C332.207 273.322 333.355 272.49 334.68 271.916C336.016 271.342 337.486 271.055 339.092 271.055C340.709 271.055 342.18 271.342 343.504 271.916C344.84 272.49 345.988 273.322 346.949 274.412C347.922 275.502 348.672 276.82 349.199 278.367C349.738 279.902 350.008 281.648 350.008 283.605ZM344.682 284.818V283.57C344.682 282.211 344.559 281.016 344.312 279.984C344.066 278.953 343.703 278.086 343.223 277.383C342.742 276.68 342.156 276.152 341.465 275.801C340.773 275.438 339.982 275.256 339.092 275.256C338.201 275.256 337.41 275.438 336.719 275.801C336.039 276.152 335.459 276.68 334.979 277.383C334.51 278.086 334.152 278.953 333.906 279.984C333.66 281.016 333.537 282.211 333.537 283.57V284.818C333.537 286.166 333.66 287.361 333.906 288.404C334.152 289.436 334.516 290.309 334.996 291.023C335.477 291.727 336.062 292.26 336.754 292.623C337.445 292.986 338.236 293.168 339.127 293.168C340.018 293.168 340.809 292.986 341.5 292.623C342.191 292.26 342.771 291.727 343.24 291.023C343.709 290.309 344.066 289.436 344.312 288.404C344.559 287.361 344.682 286.166 344.682 284.818ZM379.504 271.406V275.537H367.99V297H362.734V271.406H379.504ZM366.18 280.74H372.156C374.172 280.74 375.906 281.074 377.359 281.742C378.812 282.41 379.932 283.348 380.717 284.555C381.502 285.762 381.895 287.168 381.895 288.773C381.895 289.992 381.672 291.105 381.227 292.113C380.781 293.109 380.131 293.977 379.275 294.715C378.432 295.441 377.412 296.004 376.217 296.402C375.021 296.801 373.668 297 372.156 297H362.734V271.406H368.025V292.887H372.156C373.164 292.887 373.996 292.699 374.652 292.324C375.309 291.949 375.801 291.451 376.129 290.83C376.469 290.197 376.639 289.5 376.639 288.738C376.639 288.012 376.469 287.355 376.129 286.77C375.801 286.172 375.309 285.703 374.652 285.363C373.996 285.023 373.164 284.854 372.156 284.854H366.18V280.74ZM393.057 287.719L399.35 271.406H405.027L396.256 292.043C395.951 292.746 395.6 293.42 395.201 294.064C394.814 294.697 394.352 295.266 393.812 295.77C393.273 296.262 392.629 296.654 391.879 296.947C391.129 297.229 390.232 297.369 389.189 297.369C388.932 297.369 388.615 297.363 388.24 297.352C387.865 297.34 387.566 297.322 387.344 297.299L387.309 293.186C387.449 293.221 387.672 293.244 387.977 293.256C388.281 293.256 388.504 293.256 388.645 293.256C389.336 293.256 389.881 293.156 390.279 292.957C390.678 292.758 390.994 292.477 391.229 292.113C391.475 291.738 391.691 291.299 391.879 290.795L393.057 287.719ZM388.891 271.406L394.727 284.08L396.361 289.898L392.441 289.969L383.23 271.406H388.891ZM426.631 292.887V297H408.191V292.887H426.631ZM409.756 292.887V303.275H404.799L404.518 292.887H409.756ZM430.428 292.887L429.971 303.293H425.137V292.887H430.428ZM423.73 271.406V275.537H411.408V271.406H423.73ZM427.492 271.406V297H422.236V271.406H427.492ZM410.758 271.406H416.031L415.346 281.83C415.24 283.553 415.053 285.076 414.783 286.4C414.525 287.713 414.209 288.867 413.834 289.863C413.471 290.859 413.066 291.732 412.621 292.482C412.176 293.221 411.707 293.865 411.215 294.416C410.723 294.955 410.225 295.436 409.721 295.857C409.217 296.268 408.725 296.648 408.244 297H405.221V292.887H406.398C406.738 292.605 407.096 292.219 407.471 291.727C407.857 291.234 408.221 290.572 408.561 289.74C408.912 288.896 409.217 287.83 409.475 286.541C409.744 285.252 409.943 283.682 410.072 281.83L410.758 271.406ZM441.186 287.719L447.479 271.406H453.156L444.385 292.043C444.08 292.746 443.729 293.42 443.33 294.064C442.943 294.697 442.48 295.266 441.941 295.77C441.402 296.262 440.758 296.654 440.008 296.947C439.258 297.229 438.361 297.369 437.318 297.369C437.061 297.369 436.744 297.363 436.369 297.352C435.994 297.34 435.695 297.322 435.473 297.299L435.438 293.186C435.578 293.221 435.801 293.244 436.105 293.256C436.41 293.256 436.633 293.256 436.773 293.256C437.465 293.256 438.01 293.156 438.408 292.957C438.807 292.758 439.123 292.477 439.357 292.113C439.604 291.738 439.82 291.299 440.008 290.795L441.186 287.719ZM437.02 271.406L442.855 284.08L444.49 289.898L440.57 289.969L431.359 271.406H437.02ZM467.658 271.406V297H462.402V271.406H467.658ZM475.533 271.406V275.537H454.65V271.406H475.533ZM496.188 273.709H501.883C503.406 273.709 504.812 273.961 506.102 274.465C507.391 274.957 508.51 275.672 509.459 276.609C510.42 277.535 511.164 278.654 511.691 279.967C512.219 281.268 512.482 282.721 512.482 284.326C512.482 285.896 512.219 287.326 511.691 288.615C511.164 289.893 510.42 290.988 509.459 291.902C508.51 292.816 507.391 293.52 506.102 294.012C504.812 294.504 503.406 294.75 501.883 294.75H496.188C494.652 294.75 493.24 294.504 491.951 294.012C490.662 293.52 489.537 292.822 488.576 291.92C487.615 291.006 486.865 289.91 486.326 288.633C485.799 287.355 485.535 285.932 485.535 284.361C485.535 282.756 485.799 281.303 486.326 280.002C486.865 278.689 487.615 277.564 488.576 276.627C489.537 275.689 490.662 274.969 491.951 274.465C493.24 273.961 494.652 273.709 496.188 273.709ZM496.188 277.928C495.062 277.928 494.072 278.174 493.217 278.666C492.361 279.158 491.699 279.885 491.23 280.846C490.762 281.795 490.527 282.967 490.527 284.361C490.527 285.369 490.662 286.26 490.932 287.033C491.213 287.795 491.605 288.434 492.109 288.949C492.613 289.465 493.211 289.857 493.902 290.127C494.594 290.396 495.355 290.531 496.188 290.531H501.918C503.031 290.531 504.004 290.291 504.836 289.811C505.68 289.33 506.336 288.627 506.805 287.701C507.273 286.775 507.508 285.65 507.508 284.326C507.508 283.283 507.373 282.363 507.104 281.566C506.834 280.77 506.453 280.102 505.961 279.562C505.469 279.023 504.877 278.619 504.186 278.35C503.506 278.068 502.75 277.928 501.918 277.928H496.188ZM501.566 270.352V298.055H496.504V270.352H501.566ZM536.969 283.605V284.818C536.969 286.764 536.705 288.51 536.178 290.057C535.65 291.604 534.906 292.922 533.945 294.012C532.984 295.09 531.836 295.916 530.5 296.49C529.176 297.064 527.705 297.352 526.088 297.352C524.482 297.352 523.012 297.064 521.676 296.49C520.352 295.916 519.203 295.09 518.23 294.012C517.258 292.922 516.502 291.604 515.963 290.057C515.436 288.51 515.172 286.764 515.172 284.818V283.605C515.172 281.648 515.436 279.902 515.963 278.367C516.49 276.82 517.234 275.502 518.195 274.412C519.168 273.322 520.316 272.49 521.641 271.916C522.977 271.342 524.447 271.055 526.053 271.055C527.67 271.055 529.141 271.342 530.465 271.916C531.801 272.49 532.949 273.322 533.91 274.412C534.883 275.502 535.633 276.82 536.16 278.367C536.699 279.902 536.969 281.648 536.969 283.605ZM531.643 284.818V283.57C531.643 282.211 531.52 281.016 531.273 279.984C531.027 278.953 530.664 278.086 530.184 277.383C529.703 276.68 529.117 276.152 528.426 275.801C527.734 275.438 526.943 275.256 526.053 275.256C525.162 275.256 524.371 275.438 523.68 275.801C523 276.152 522.42 276.68 521.939 277.383C521.471 278.086 521.113 278.953 520.867 279.984C520.621 281.016 520.498 282.211 520.498 283.57V284.818C520.498 286.166 520.621 287.361 520.867 288.404C521.113 289.436 521.477 290.309 521.957 291.023C522.438 291.727 523.023 292.26 523.715 292.623C524.406 292.986 525.197 293.168 526.088 293.168C526.979 293.168 527.77 292.986 528.461 292.623C529.152 292.26 529.732 291.727 530.201 291.023C530.67 290.309 531.027 289.436 531.273 288.404C531.52 287.361 531.643 286.166 531.643 284.818ZM551.014 271.406V297H545.758V271.406H551.014ZM558.889 271.406V275.537H538.006V271.406H558.889ZM582.426 283.605V284.818C582.426 286.764 582.162 288.51 581.635 290.057C581.107 291.604 580.363 292.922 579.402 294.012C578.441 295.09 577.293 295.916 575.957 296.49C574.633 297.064 573.162 297.352 571.545 297.352C569.939 297.352 568.469 297.064 567.133 296.49C565.809 295.916 564.66 295.09 563.688 294.012C562.715 292.922 561.959 291.604 561.42 290.057C560.893 288.51 560.629 286.764 560.629 284.818V283.605C560.629 281.648 560.893 279.902 561.42 278.367C561.947 276.82 562.691 275.502 563.652 274.412C564.625 273.322 565.773 272.49 567.098 271.916C568.434 271.342 569.904 271.055 571.51 271.055C573.127 271.055 574.598 271.342 575.922 271.916C577.258 272.49 578.406 273.322 579.367 274.412C580.34 275.502 581.09 276.82 581.617 278.367C582.156 279.902 582.426 281.648 582.426 283.605ZM577.1 284.818V283.57C577.1 282.211 576.977 281.016 576.73 279.984C576.484 278.953 576.121 278.086 575.641 277.383C575.16 276.68 574.574 276.152 573.883 275.801C573.191 275.438 572.4 275.256 571.51 275.256C570.619 275.256 569.828 275.438 569.137 275.801C568.457 276.152 567.877 276.68 567.396 277.383C566.928 278.086 566.57 278.953 566.324 279.984C566.078 281.016 565.955 282.211 565.955 283.57V284.818C565.955 286.166 566.078 287.361 566.324 288.404C566.57 289.436 566.934 290.309 567.414 291.023C567.895 291.727 568.48 292.26 569.172 292.623C569.863 292.986 570.654 293.168 571.545 293.168C572.436 293.168 573.227 292.986 573.918 292.623C574.609 292.26 575.189 291.727 575.658 291.023C576.127 290.309 576.484 289.436 576.73 288.404C576.977 287.361 577.1 286.166 577.1 284.818ZM142.445 323.83V327.943H129.086V323.83H142.445ZM130.65 313.406V339H125.377V313.406H130.65ZM146.207 313.406V339H140.951V313.406H146.207ZM171.818 325.605V326.818C171.818 328.764 171.555 330.51 171.027 332.057C170.5 333.604 169.756 334.922 168.795 336.012C167.834 337.09 166.686 337.916 165.35 338.49C164.025 339.064 162.555 339.352 160.938 339.352C159.332 339.352 157.861 339.064 156.525 338.49C155.201 337.916 154.053 337.09 153.08 336.012C152.107 334.922 151.352 333.604 150.812 332.057C150.285 330.51 150.021 328.764 150.021 326.818V325.605C150.021 323.648 150.285 321.902 150.812 320.367C151.34 318.82 152.084 317.502 153.045 316.412C154.018 315.322 155.166 314.49 156.49 313.916C157.826 313.342 159.297 313.055 160.902 313.055C162.52 313.055 163.99 313.342 165.314 313.916C166.65 314.49 167.799 315.322 168.76 316.412C169.732 317.502 170.482 318.82 171.01 320.367C171.549 321.902 171.818 323.648 171.818 325.605ZM166.492 326.818V325.57C166.492 324.211 166.369 323.016 166.123 321.984C165.877 320.953 165.514 320.086 165.033 319.383C164.553 318.68 163.967 318.152 163.275 317.801C162.584 317.438 161.793 317.256 160.902 317.256C160.012 317.256 159.221 317.438 158.529 317.801C157.85 318.152 157.27 318.68 156.789 319.383C156.32 320.086 155.963 320.953 155.717 321.984C155.471 323.016 155.348 324.211 155.348 325.57V326.818C155.348 328.166 155.471 329.361 155.717 330.404C155.963 331.436 156.326 332.309 156.807 333.023C157.287 333.727 157.873 334.26 158.564 334.623C159.256 334.986 160.047 335.168 160.938 335.168C161.828 335.168 162.619 334.986 163.311 334.623C164.002 334.26 164.582 333.727 165.051 333.023C165.52 332.309 165.877 331.436 166.123 330.404C166.369 329.361 166.492 328.166 166.492 326.818ZM185.635 327.768H179.061L179.025 324.146H184.545C185.518 324.146 186.314 324.023 186.936 323.777C187.557 323.52 188.02 323.15 188.324 322.67C188.641 322.178 188.799 321.58 188.799 320.877C188.799 320.08 188.646 319.436 188.342 318.943C188.049 318.451 187.586 318.094 186.953 317.871C186.332 317.648 185.529 317.537 184.545 317.537H180.889V339H175.615V313.406H184.545C186.033 313.406 187.363 313.547 188.535 313.828C189.719 314.109 190.721 314.537 191.541 315.111C192.361 315.686 192.988 316.412 193.422 317.291C193.855 318.158 194.072 319.189 194.072 320.385C194.072 321.439 193.832 322.412 193.352 323.303C192.883 324.193 192.139 324.92 191.119 325.482C190.111 326.045 188.793 326.355 187.164 326.414L185.635 327.768ZM185.406 339H177.619L179.676 334.887H185.406C186.332 334.887 187.088 334.74 187.674 334.447C188.26 334.143 188.693 333.732 188.975 333.217C189.256 332.701 189.396 332.109 189.396 331.441C189.396 330.691 189.268 330.041 189.01 329.49C188.764 328.939 188.365 328.518 187.814 328.225C187.264 327.92 186.537 327.768 185.635 327.768H180.555L180.59 324.146H186.918L188.131 325.57C189.689 325.547 190.943 325.822 191.893 326.396C192.854 326.959 193.551 327.691 193.984 328.594C194.43 329.496 194.652 330.463 194.652 331.494C194.652 333.135 194.295 334.518 193.58 335.643C192.865 336.756 191.816 337.594 190.434 338.156C189.062 338.719 187.387 339 185.406 339ZM202.088 322.74H208.064C210.068 322.74 211.797 323.074 213.25 323.742C214.715 324.41 215.834 325.348 216.607 326.555C217.393 327.762 217.785 329.168 217.785 330.773C217.785 331.992 217.562 333.105 217.117 334.113C216.672 335.109 216.027 335.977 215.184 336.715C214.34 337.441 213.32 338.004 212.125 338.402C210.93 338.801 209.576 339 208.064 339H198.643V313.406H203.934V334.887H208.064C209.061 334.887 209.887 334.699 210.543 334.324C211.211 333.949 211.709 333.451 212.037 332.83C212.365 332.197 212.529 331.5 212.529 330.738C212.529 330.012 212.365 329.355 212.037 328.77C211.709 328.172 211.211 327.703 210.543 327.363C209.887 327.023 209.061 326.854 208.064 326.854H202.088V322.74ZM225.309 313.406V339H220.053V313.406H225.309ZM234.555 313.406L239.371 322.336L244.188 313.406H250.217L242.781 326.098L250.41 339H244.328L239.371 329.895L234.414 339H228.297L235.943 326.098L228.49 313.406H234.555ZM267.32 313.406V339H262.047V313.406H267.32ZM282.402 313.406L272.594 328.436H266.143L265.475 323.742H269.781L276.004 313.406H282.402ZM276.971 339L269.799 327.557L273.455 323.795L283.229 339H276.971ZM305.764 325.605V326.818C305.764 328.764 305.5 330.51 304.973 332.057C304.445 333.604 303.701 334.922 302.74 336.012C301.779 337.09 300.631 337.916 299.295 338.49C297.971 339.064 296.5 339.352 294.883 339.352C293.277 339.352 291.807 339.064 290.471 338.49C289.146 337.916 287.998 337.09 287.025 336.012C286.053 334.922 285.297 333.604 284.758 332.057C284.23 330.51 283.967 328.764 283.967 326.818V325.605C283.967 323.648 284.23 321.902 284.758 320.367C285.285 318.82 286.029 317.502 286.99 316.412C287.963 315.322 289.111 314.49 290.436 313.916C291.771 313.342 293.242 313.055 294.848 313.055C296.465 313.055 297.936 313.342 299.26 313.916C300.596 314.49 301.744 315.322 302.705 316.412C303.678 317.502 304.428 318.82 304.955 320.367C305.494 321.902 305.764 323.648 305.764 325.605ZM300.438 326.818V325.57C300.438 324.211 300.314 323.016 300.068 321.984C299.822 320.953 299.459 320.086 298.979 319.383C298.498 318.68 297.912 318.152 297.221 317.801C296.529 317.438 295.738 317.256 294.848 317.256C293.957 317.256 293.166 317.438 292.475 317.801C291.795 318.152 291.215 318.68 290.734 319.383C290.266 320.086 289.908 320.953 289.662 321.984C289.416 323.016 289.293 324.211 289.293 325.57V326.818C289.293 328.166 289.416 329.361 289.662 330.404C289.908 331.436 290.271 332.309 290.752 333.023C291.232 333.727 291.818 334.26 292.51 334.623C293.201 334.986 293.992 335.168 294.883 335.168C295.773 335.168 296.564 334.986 297.256 334.623C297.947 334.26 298.527 333.727 298.996 333.023C299.465 332.309 299.822 331.436 300.068 330.404C300.314 329.361 300.438 328.166 300.438 326.818ZM311.969 313.406H316.434L323.008 332.197L329.582 313.406H334.047L324.801 339H321.215L311.969 313.406ZM309.561 313.406H314.008L314.816 331.723V339H309.561V313.406ZM332.008 313.406H336.473V339H331.199V331.723L332.008 313.406ZM343.504 313.406H347.969L354.543 332.197L361.117 313.406H365.582L356.336 339H352.75L343.504 313.406ZM341.096 313.406H345.543L346.352 331.723V339H341.096V313.406ZM363.543 313.406H368.008V339H362.734V331.723L363.543 313.406ZM380.664 329.719L386.957 313.406H392.635L383.863 334.043C383.559 334.746 383.207 335.42 382.809 336.064C382.422 336.697 381.959 337.266 381.42 337.77C380.881 338.262 380.236 338.654 379.486 338.947C378.736 339.229 377.84 339.369 376.797 339.369C376.539 339.369 376.223 339.363 375.848 339.352C375.473 339.34 375.174 339.322 374.951 339.299L374.916 335.186C375.057 335.221 375.279 335.244 375.584 335.256C375.889 335.256 376.111 335.256 376.252 335.256C376.943 335.256 377.488 335.156 377.887 334.957C378.285 334.758 378.602 334.477 378.836 334.113C379.082 333.738 379.299 333.299 379.486 332.795L380.664 329.719ZM376.498 313.406L382.334 326.08L383.969 331.898L380.049 331.969L370.838 313.406H376.498ZM412.445 323.83V327.943H399.086V323.83H412.445ZM400.65 313.406V339H395.377V313.406H400.65ZM416.207 313.406V339H410.951V313.406H416.207ZM425.875 330.703L436.158 313.406H441.432V339H436.158V321.703L425.875 339H420.602V313.406H425.875V330.703ZM451.293 313.406V339H446.02V313.406H451.293ZM466.375 313.406L456.566 328.436H450.115L449.447 323.742H453.754L459.977 313.406H466.375ZM460.943 339L453.771 327.557L457.428 323.795L467.201 339H460.943ZM479.682 317.783L472.721 339H467.113L476.623 313.406H480.191L479.682 317.783ZM485.465 339L478.486 317.783L477.924 313.406H481.527L491.09 339H485.465ZM485.148 329.473V333.604H471.631V329.473H485.148ZM517.545 334.904L517.211 345.17H512.289V339H510.197V334.904H517.545ZM493.199 339V313.406H498.455V334.887H508.756V313.406H514.047V339H493.199ZM525.859 330.703L536.143 313.406H541.416V339H536.143V321.703L525.859 339H520.586V313.406H525.859V330.703ZM551.066 330.703L561.35 313.406H566.623V339H561.35V321.703L551.066 339H545.793V313.406H551.066V330.703ZM558.766 306.691H562.369C562.369 307.699 562.117 308.596 561.613 309.381C561.121 310.154 560.418 310.764 559.504 311.209C558.59 311.643 557.512 311.859 556.27 311.859C554.383 311.859 552.889 311.379 551.787 310.418C550.697 309.457 550.152 308.215 550.152 306.691H553.738C553.738 307.301 553.926 307.846 554.301 308.326C554.688 308.807 555.344 309.047 556.27 309.047C557.184 309.047 557.828 308.807 558.203 308.326C558.578 307.846 558.766 307.301 558.766 306.691Z" fill="white"/>
<path d="M429.333 192.083H371C367.583 192.083 364.75 189.25 364.75 185.833C364.75 182.417 367.583 179.583 371 179.583H429.333C432.75 179.583 435.583 182.417 435.583 185.833C435.583 189.25 432.75 192.083 429.333 192.083Z" fill="white"/>
<path d="M287.667 192.083H262.667C259.25 192.083 256.417 189.25 256.417 185.833C256.417 182.417 259.25 179.583 262.667 179.583H287.667C291.083 179.583 293.917 182.417 293.917 185.833C293.917 189.25 291.083 192.083 287.667 192.083Z" fill="white"/>
<path d="M429.333 100.417H404.333C400.917 100.417 398.083 97.5833 398.083 94.1666C398.083 90.75 400.917 87.9166 404.333 87.9166H429.333C432.75 87.9166 435.583 90.75 435.583 94.1666C435.583 97.5833 432.75 100.417 429.333 100.417Z" fill="white"/>
<path d="M321 100.417H262.667C259.25 100.417 256.417 97.5833 256.417 94.1666C256.417 90.75 259.25 87.9166 262.667 87.9166H321C324.417 87.9166 327.25 90.75 327.25 94.1666C327.25 97.5833 324.417 100.417 321 100.417Z" fill="white"/>
<path d="M354.333 217.083H304.333C290 217.083 281.417 208.5 281.417 194.167V177.5C281.417 163.167 290 154.583 304.333 154.583H354.333C368.667 154.583 377.25 163.167 377.25 177.5V194.167C377.25 208.5 368.667 217.083 354.333 217.083ZM304.333 167.083C296.917 167.083 293.917 170.083 293.917 177.5V194.167C293.917 201.583 296.917 204.583 304.333 204.583H354.333C361.75 204.583 364.75 201.583 364.75 194.167V177.5C364.75 170.083 361.75 167.083 354.333 167.083H304.333Z" fill="white"/>
<path d="M387.667 125.417H337.667C323.333 125.417 314.75 116.833 314.75 102.5V85.8333C314.75 71.5 323.333 62.9166 337.667 62.9166H387.667C402 62.9166 410.583 71.5 410.583 85.8333V102.5C410.583 116.833 402 125.417 387.667 125.417ZM337.667 75.4166C330.25 75.4166 327.25 78.4166 327.25 85.8333V102.5C327.25 109.917 330.25 112.917 337.667 112.917H387.667C395.083 112.917 398.083 109.917 398.083 102.5V85.8333C398.083 78.4166 395.083 75.4166 387.667 75.4166H337.667Z" fill="white"/>
</svg>
