<svg width="17" height="29" viewBox="0 0 17 29" fill="none" xmlns="http://www.w3.org/2000/svg">
<path d="M1.46828 15.053C1.51613 15.1925 1.59574 15.3237 1.70711 15.435L1.7138 15.4417L14.435 28.1629C14.8255 28.5534 15.4587 28.5534 15.8492 28.1629C16.2397 27.7723 16.2397 27.1392 15.8492 26.7486L3.82846 14.7279L15.8492 2.70711C16.2398 2.31658 16.2398 1.68342 15.8492 1.29289C15.4587 0.902369 14.8256 0.902369 14.435 1.29289L1.71662 14.0113C1.71343 14.0144 1.71024 14.0176 1.70708 14.0207C1.4279 14.2999 1.3483 14.7031 1.46828 15.053Z" fill="#005596"/>
<path d="M1.70711 15.435L1.35355 15.7886L1.35519 15.7902L1.70711 15.435ZM1.46828 15.053L1.94126 14.8908L1.94124 14.8908L1.46828 15.053ZM1.7138 15.4417L2.06736 15.0881L2.06572 15.0865L1.7138 15.4417ZM14.435 28.1629L14.7886 27.8093L14.435 28.1629ZM15.8492 28.1629L16.2028 28.5164H16.2028L15.8492 28.1629ZM15.8492 26.7486L16.2028 26.3951L15.8492 26.7486ZM3.82846 14.7279L3.47491 14.3743L3.12135 14.7279L3.47491 15.0814L3.82846 14.7279ZM15.8492 2.70711L16.2028 3.06066L15.8492 2.70711ZM15.8492 1.29289L15.4957 1.64645L15.4957 1.64645L15.8492 1.29289ZM14.435 1.29289L14.7886 1.64645L14.435 1.29289ZM1.71662 14.0113L2.06553 14.3695L2.07018 14.3649L1.71662 14.0113ZM1.70708 14.0207L2.06063 14.3743L2.06064 14.3743L1.70708 14.0207ZM2.06066 15.0815C2.00434 15.0251 1.96495 14.9599 1.94126 14.8908L0.995295 15.2151C1.06731 15.4252 1.18714 15.6222 1.35356 15.7886L2.06066 15.0815ZM2.06572 15.0865L2.05903 15.0798L1.35519 15.7902L1.36188 15.7968L2.06572 15.0865ZM14.7886 27.8093L2.06735 15.0881L1.36024 15.7952L14.0814 28.5164L14.7886 27.8093ZM15.4957 27.8093C15.3004 28.0046 14.9838 28.0046 14.7886 27.8093L14.0814 28.5164C14.6672 29.1022 15.617 29.1022 16.2028 28.5164L15.4957 27.8093ZM15.4957 27.1022C15.6909 27.2975 15.6909 27.614 15.4957 27.8093L16.2028 28.5164C16.7886 27.9306 16.7886 26.9809 16.2028 26.3951L15.4957 27.1022ZM3.47491 15.0814L15.4957 27.1022L16.2028 26.3951L4.18201 14.3743L3.47491 15.0814ZM15.4957 2.35355L3.47491 14.3743L4.18201 15.0814L16.2028 3.06066L15.4957 2.35355ZM15.4957 1.64645C15.691 1.84171 15.691 2.15829 15.4957 2.35355L16.2028 3.06066C16.7886 2.47487 16.7886 1.52513 16.2028 0.939339L15.4957 1.64645ZM14.7886 1.64645C14.9838 1.45118 15.3004 1.45118 15.4957 1.64645L16.2028 0.93934C15.617 0.353553 14.6673 0.353554 14.0815 0.93934L14.7886 1.64645ZM2.07018 14.3649L14.7886 1.64645L14.0815 0.93934L1.36307 13.6577L2.07018 14.3649ZM2.06064 14.3743C2.06225 14.3727 2.06387 14.3711 2.0655 14.3695L1.36775 13.6531C1.36298 13.6578 1.35823 13.6625 1.35352 13.6672L2.06064 14.3743ZM1.94124 14.8908C1.88082 14.7146 1.92157 14.5133 2.06063 14.3743L1.35352 13.6672C0.934237 14.0865 0.815779 14.6916 0.995311 15.2151L1.94124 14.8908Z" fill="#005596"/>
</svg>
