<svg width="691" height="408" viewBox="0 0 691 408" fill="none" xmlns="http://www.w3.org/2000/svg">
<rect width="691" height="408" fill="#005596"/>
<path d="M119.91 284.73H115.938V281.936H119.102C120.027 281.936 120.777 281.795 121.352 281.514C121.926 281.221 122.348 280.811 122.617 280.283C122.887 279.756 123.021 279.135 123.021 278.42C123.021 277.834 122.869 277.295 122.564 276.803C122.271 276.311 121.814 275.918 121.193 275.625C120.572 275.32 119.781 275.168 118.82 275.168C118.094 275.168 117.432 275.297 116.834 275.555C116.236 275.812 115.762 276.176 115.41 276.645C115.059 277.102 114.883 277.658 114.883 278.314H109.627C109.627 277.189 109.867 276.182 110.348 275.291C110.84 274.389 111.508 273.627 112.352 273.006C113.207 272.373 114.191 271.893 115.305 271.564C116.418 271.236 117.59 271.072 118.82 271.072C120.262 271.072 121.562 271.23 122.723 271.547C123.883 271.852 124.879 272.309 125.711 272.918C126.543 273.527 127.182 274.283 127.627 275.186C128.072 276.088 128.295 277.137 128.295 278.332C128.295 279.211 128.096 280.037 127.697 280.811C127.299 281.584 126.73 282.264 125.992 282.85C125.254 283.436 124.369 283.898 123.338 284.238C122.307 284.566 121.164 284.73 119.91 284.73ZM115.938 283.201H119.91C121.305 283.201 122.541 283.348 123.619 283.641C124.709 283.934 125.629 284.361 126.379 284.924C127.141 285.486 127.715 286.184 128.102 287.016C128.5 287.836 128.699 288.779 128.699 289.846C128.699 291.041 128.453 292.102 127.961 293.027C127.48 293.953 126.795 294.738 125.904 295.383C125.025 296.027 123.982 296.514 122.775 296.842C121.58 297.17 120.262 297.334 118.82 297.334C117.672 297.334 116.529 297.193 115.393 296.912C114.256 296.619 113.225 296.174 112.299 295.576C111.373 294.979 110.635 294.211 110.084 293.273C109.533 292.336 109.258 291.211 109.258 289.898H114.549C114.549 290.52 114.73 291.088 115.094 291.604C115.457 292.107 115.961 292.512 116.605 292.816C117.25 293.109 117.988 293.256 118.82 293.256C119.793 293.256 120.619 293.104 121.299 292.799C121.99 292.494 122.512 292.078 122.863 291.551C123.227 291.012 123.408 290.42 123.408 289.775C123.408 289.084 123.314 288.498 123.127 288.018C122.939 287.537 122.664 287.145 122.301 286.84C121.938 286.523 121.486 286.295 120.947 286.154C120.42 286.014 119.805 285.943 119.102 285.943H115.938V283.201ZM152.904 292.887V297H134.465V292.887H152.904ZM136.029 292.887V303.275H131.072L130.791 292.887H136.029ZM156.701 292.887L156.244 303.293H151.41V292.887H156.701ZM150.004 271.406V275.537H137.682V271.406H150.004ZM153.766 271.406V297H148.51V271.406H153.766ZM137.031 271.406H142.305L141.619 281.83C141.514 283.553 141.326 285.076 141.057 286.4C140.799 287.713 140.482 288.867 140.107 289.863C139.744 290.859 139.34 291.732 138.895 292.482C138.449 293.221 137.98 293.865 137.488 294.416C136.996 294.955 136.498 295.436 135.994 295.857C135.49 296.268 134.998 296.648 134.518 297H131.494V292.887H132.672C133.012 292.605 133.369 292.219 133.744 291.727C134.131 291.234 134.494 290.572 134.834 289.74C135.186 288.896 135.49 287.83 135.748 286.541C136.018 285.252 136.217 283.682 136.346 281.83L137.031 271.406ZM176.6 292.887V297H162.977V292.887H176.6ZM164.699 271.406V297H159.426V271.406H164.699ZM174.824 281.83V285.838H162.977V281.83H174.824ZM176.582 271.406V275.537H162.977V271.406H176.582ZM194.512 288.51H199.768C199.662 290.232 199.188 291.762 198.344 293.098C197.512 294.434 196.346 295.477 194.846 296.227C193.357 296.977 191.564 297.352 189.467 297.352C187.826 297.352 186.355 297.07 185.055 296.508C183.754 295.934 182.641 295.113 181.715 294.047C180.801 292.98 180.104 291.691 179.623 290.18C179.143 288.668 178.902 286.975 178.902 285.1V283.324C178.902 281.449 179.148 279.756 179.641 278.244C180.145 276.721 180.859 275.426 181.785 274.359C182.723 273.293 183.842 272.473 185.143 271.898C186.443 271.324 187.896 271.037 189.502 271.037C191.635 271.037 193.434 271.424 194.898 272.197C196.375 272.971 197.518 274.037 198.326 275.396C199.146 276.756 199.639 278.303 199.803 280.037H194.529C194.471 279.006 194.266 278.133 193.914 277.418C193.562 276.691 193.029 276.146 192.314 275.783C191.611 275.408 190.674 275.221 189.502 275.221C188.623 275.221 187.855 275.385 187.199 275.713C186.543 276.041 185.992 276.539 185.547 277.207C185.102 277.875 184.768 278.719 184.545 279.738C184.334 280.746 184.229 281.93 184.229 283.289V285.1C184.229 286.424 184.328 287.59 184.527 288.598C184.727 289.594 185.031 290.438 185.441 291.129C185.863 291.809 186.402 292.324 187.059 292.676C187.727 293.016 188.529 293.186 189.467 293.186C190.568 293.186 191.477 293.01 192.191 292.658C192.906 292.307 193.451 291.785 193.826 291.094C194.213 290.402 194.441 289.541 194.512 288.51ZM206.641 280.74H212.617C214.633 280.74 216.367 281.074 217.82 281.742C219.273 282.41 220.393 283.348 221.178 284.555C221.963 285.762 222.355 287.168 222.355 288.773C222.355 289.992 222.133 291.105 221.688 292.113C221.242 293.109 220.592 293.977 219.736 294.715C218.893 295.441 217.873 296.004 216.678 296.402C215.482 296.801 214.129 297 212.617 297H203.195V271.406H208.486V292.887H212.617C213.625 292.887 214.457 292.699 215.113 292.324C215.77 291.949 216.262 291.451 216.59 290.83C216.93 290.197 217.1 289.5 217.1 288.738C217.1 288.012 216.93 287.355 216.59 286.77C216.262 286.172 215.77 285.703 215.113 285.363C214.457 285.023 213.625 284.854 212.617 284.854H206.641V280.74ZM249.531 288.51H254.787C254.682 290.232 254.207 291.762 253.363 293.098C252.531 294.434 251.365 295.477 249.865 296.227C248.377 296.977 246.584 297.352 244.486 297.352C242.846 297.352 241.375 297.07 240.074 296.508C238.773 295.934 237.66 295.113 236.734 294.047C235.82 292.98 235.123 291.691 234.643 290.18C234.162 288.668 233.922 286.975 233.922 285.1V283.324C233.922 281.449 234.168 279.756 234.66 278.244C235.164 276.721 235.879 275.426 236.805 274.359C237.742 273.293 238.861 272.473 240.162 271.898C241.463 271.324 242.916 271.037 244.521 271.037C246.654 271.037 248.453 271.424 249.918 272.197C251.395 272.971 252.537 274.037 253.346 275.396C254.166 276.756 254.658 278.303 254.822 280.037H249.549C249.49 279.006 249.285 278.133 248.934 277.418C248.582 276.691 248.049 276.146 247.334 275.783C246.631 275.408 245.693 275.221 244.521 275.221C243.643 275.221 242.875 275.385 242.219 275.713C241.562 276.041 241.012 276.539 240.566 277.207C240.121 277.875 239.787 278.719 239.564 279.738C239.354 280.746 239.248 281.93 239.248 283.289V285.1C239.248 286.424 239.348 287.59 239.547 288.598C239.746 289.594 240.051 290.438 240.461 291.129C240.883 291.809 241.422 292.324 242.078 292.676C242.746 293.016 243.549 293.186 244.486 293.186C245.588 293.186 246.496 293.01 247.211 292.658C247.926 292.307 248.471 291.785 248.846 291.094C249.232 290.402 249.461 289.541 249.531 288.51ZM263.541 271.406V297H258.268V271.406H263.541ZM278.623 271.406L268.814 286.436H262.363L261.695 281.742H266.002L272.225 271.406H278.623ZM273.191 297L266.02 285.557L269.676 281.795L279.449 297H273.191ZM301.984 283.605V284.818C301.984 286.764 301.721 288.51 301.193 290.057C300.666 291.604 299.922 292.922 298.961 294.012C298 295.09 296.852 295.916 295.516 296.49C294.191 297.064 292.721 297.352 291.104 297.352C289.498 297.352 288.027 297.064 286.691 296.49C285.367 295.916 284.219 295.09 283.246 294.012C282.273 292.922 281.518 291.604 280.979 290.057C280.451 288.51 280.188 286.764 280.188 284.818V283.605C280.188 281.648 280.451 279.902 280.979 278.367C281.506 276.82 282.25 275.502 283.211 274.412C284.184 273.322 285.332 272.49 286.656 271.916C287.992 271.342 289.463 271.055 291.068 271.055C292.686 271.055 294.156 271.342 295.48 271.916C296.816 272.49 297.965 273.322 298.926 274.412C299.898 275.502 300.648 276.82 301.176 278.367C301.715 279.902 301.984 281.648 301.984 283.605ZM296.658 284.818V283.57C296.658 282.211 296.535 281.016 296.289 279.984C296.043 278.953 295.68 278.086 295.199 277.383C294.719 276.68 294.133 276.152 293.441 275.801C292.75 275.438 291.959 275.256 291.068 275.256C290.178 275.256 289.387 275.438 288.695 275.801C288.016 276.152 287.436 276.68 286.955 277.383C286.486 278.086 286.129 278.953 285.883 279.984C285.637 281.016 285.514 282.211 285.514 283.57V284.818C285.514 286.166 285.637 287.361 285.883 288.404C286.129 289.436 286.492 290.309 286.973 291.023C287.453 291.727 288.039 292.26 288.73 292.623C289.422 292.986 290.213 293.168 291.104 293.168C291.994 293.168 292.785 292.986 293.477 292.623C294.168 292.26 294.748 291.727 295.217 291.023C295.686 290.309 296.043 289.436 296.289 288.404C296.535 287.361 296.658 286.166 296.658 284.818ZM315.748 287.877H309.227V283.764H315.748C316.756 283.764 317.576 283.6 318.209 283.271C318.842 282.932 319.305 282.463 319.598 281.865C319.891 281.268 320.037 280.594 320.037 279.844C320.037 279.082 319.891 278.373 319.598 277.717C319.305 277.061 318.842 276.533 318.209 276.135C317.576 275.736 316.756 275.537 315.748 275.537H311.055V297H305.781V271.406H315.748C317.752 271.406 319.469 271.77 320.898 272.496C322.34 273.211 323.441 274.201 324.203 275.467C324.965 276.732 325.346 278.18 325.346 279.809C325.346 281.461 324.965 282.891 324.203 284.098C323.441 285.305 322.34 286.236 320.898 286.893C319.469 287.549 317.752 287.877 315.748 287.877ZM350.008 283.605V284.818C350.008 286.764 349.744 288.51 349.217 290.057C348.689 291.604 347.945 292.922 346.984 294.012C346.023 295.09 344.875 295.916 343.539 296.49C342.215 297.064 340.744 297.352 339.127 297.352C337.521 297.352 336.051 297.064 334.715 296.49C333.391 295.916 332.242 295.09 331.27 294.012C330.297 292.922 329.541 291.604 329.002 290.057C328.475 288.51 328.211 286.764 328.211 284.818V283.605C328.211 281.648 328.475 279.902 329.002 278.367C329.529 276.82 330.273 275.502 331.234 274.412C332.207 273.322 333.355 272.49 334.68 271.916C336.016 271.342 337.486 271.055 339.092 271.055C340.709 271.055 342.18 271.342 343.504 271.916C344.84 272.49 345.988 273.322 346.949 274.412C347.922 275.502 348.672 276.82 349.199 278.367C349.738 279.902 350.008 281.648 350.008 283.605ZM344.682 284.818V283.57C344.682 282.211 344.559 281.016 344.312 279.984C344.066 278.953 343.703 278.086 343.223 277.383C342.742 276.68 342.156 276.152 341.465 275.801C340.773 275.438 339.982 275.256 339.092 275.256C338.201 275.256 337.41 275.438 336.719 275.801C336.039 276.152 335.459 276.68 334.979 277.383C334.51 278.086 334.152 278.953 333.906 279.984C333.66 281.016 333.537 282.211 333.537 283.57V284.818C333.537 286.166 333.66 287.361 333.906 288.404C334.152 289.436 334.516 290.309 334.996 291.023C335.477 291.727 336.062 292.26 336.754 292.623C337.445 292.986 338.236 293.168 339.127 293.168C340.018 293.168 340.809 292.986 341.5 292.623C342.191 292.26 342.771 291.727 343.24 291.023C343.709 290.309 344.066 289.436 344.312 288.404C344.559 287.361 344.682 286.166 344.682 284.818ZM379.504 271.406V275.537H367.99V297H362.734V271.406H379.504ZM366.18 280.74H372.156C374.172 280.74 375.906 281.074 377.359 281.742C378.812 282.41 379.932 283.348 380.717 284.555C381.502 285.762 381.895 287.168 381.895 288.773C381.895 289.992 381.672 291.105 381.227 292.113C380.781 293.109 380.131 293.977 379.275 294.715C378.432 295.441 377.412 296.004 376.217 296.402C375.021 296.801 373.668 297 372.156 297H362.734V271.406H368.025V292.887H372.156C373.164 292.887 373.996 292.699 374.652 292.324C375.309 291.949 375.801 291.451 376.129 290.83C376.469 290.197 376.639 289.5 376.639 288.738C376.639 288.012 376.469 287.355 376.129 286.77C375.801 286.172 375.309 285.703 374.652 285.363C373.996 285.023 373.164 284.854 372.156 284.854H366.18V280.74ZM393.057 287.719L399.35 271.406H405.027L396.256 292.043C395.951 292.746 395.6 293.42 395.201 294.064C394.814 294.697 394.352 295.266 393.812 295.77C393.273 296.262 392.629 296.654 391.879 296.947C391.129 297.229 390.232 297.369 389.189 297.369C388.932 297.369 388.615 297.363 388.24 297.352C387.865 297.34 387.566 297.322 387.344 297.299L387.309 293.186C387.449 293.221 387.672 293.244 387.977 293.256C388.281 293.256 388.504 293.256 388.645 293.256C389.336 293.256 389.881 293.156 390.279 292.957C390.678 292.758 390.994 292.477 391.229 292.113C391.475 291.738 391.691 291.299 391.879 290.795L393.057 287.719ZM388.891 271.406L394.727 284.08L396.361 289.898L392.441 289.969L383.23 271.406H388.891ZM426.631 292.887V297H408.191V292.887H426.631ZM409.756 292.887V303.275H404.799L404.518 292.887H409.756ZM430.428 292.887L429.971 303.293H425.137V292.887H430.428ZM423.73 271.406V275.537H411.408V271.406H423.73ZM427.492 271.406V297H422.236V271.406H427.492ZM410.758 271.406H416.031L415.346 281.83C415.24 283.553 415.053 285.076 414.783 286.4C414.525 287.713 414.209 288.867 413.834 289.863C413.471 290.859 413.066 291.732 412.621 292.482C412.176 293.221 411.707 293.865 411.215 294.416C410.723 294.955 410.225 295.436 409.721 295.857C409.217 296.268 408.725 296.648 408.244 297H405.221V292.887H406.398C406.738 292.605 407.096 292.219 407.471 291.727C407.857 291.234 408.221 290.572 408.561 289.74C408.912 288.896 409.217 287.83 409.475 286.541C409.744 285.252 409.943 283.682 410.072 281.83L410.758 271.406ZM441.186 287.719L447.479 271.406H453.156L444.385 292.043C444.08 292.746 443.729 293.42 443.33 294.064C442.943 294.697 442.48 295.266 441.941 295.77C441.402 296.262 440.758 296.654 440.008 296.947C439.258 297.229 438.361 297.369 437.318 297.369C437.061 297.369 436.744 297.363 436.369 297.352C435.994 297.34 435.695 297.322 435.473 297.299L435.438 293.186C435.578 293.221 435.801 293.244 436.105 293.256C436.41 293.256 436.633 293.256 436.773 293.256C437.465 293.256 438.01 293.156 438.408 292.957C438.807 292.758 439.123 292.477 439.357 292.113C439.604 291.738 439.82 291.299 440.008 290.795L441.186 287.719ZM437.02 271.406L442.855 284.08L444.49 289.898L440.57 289.969L431.359 271.406H437.02ZM467.658 271.406V297H462.402V271.406H467.658ZM475.533 271.406V275.537H454.65V271.406H475.533ZM496.188 273.709H501.883C503.406 273.709 504.812 273.961 506.102 274.465C507.391 274.957 508.51 275.672 509.459 276.609C510.42 277.535 511.164 278.654 511.691 279.967C512.219 281.268 512.482 282.721 512.482 284.326C512.482 285.896 512.219 287.326 511.691 288.615C511.164 289.893 510.42 290.988 509.459 291.902C508.51 292.816 507.391 293.52 506.102 294.012C504.812 294.504 503.406 294.75 501.883 294.75H496.188C494.652 294.75 493.24 294.504 491.951 294.012C490.662 293.52 489.537 292.822 488.576 291.92C487.615 291.006 486.865 289.91 486.326 288.633C485.799 287.355 485.535 285.932 485.535 284.361C485.535 282.756 485.799 281.303 486.326 280.002C486.865 278.689 487.615 277.564 488.576 276.627C489.537 275.689 490.662 274.969 491.951 274.465C493.24 273.961 494.652 273.709 496.188 273.709ZM496.188 277.928C495.062 277.928 494.072 278.174 493.217 278.666C492.361 279.158 491.699 279.885 491.23 280.846C490.762 281.795 490.527 282.967 490.527 284.361C490.527 285.369 490.662 286.26 490.932 287.033C491.213 287.795 491.605 288.434 492.109 288.949C492.613 289.465 493.211 289.857 493.902 290.127C494.594 290.396 495.355 290.531 496.188 290.531H501.918C503.031 290.531 504.004 290.291 504.836 289.811C505.68 289.33 506.336 288.627 506.805 287.701C507.273 286.775 507.508 285.65 507.508 284.326C507.508 283.283 507.373 282.363 507.104 281.566C506.834 280.77 506.453 280.102 505.961 279.562C505.469 279.023 504.877 278.619 504.186 278.35C503.506 278.068 502.75 277.928 501.918 277.928H496.188ZM501.566 270.352V298.055H496.504V270.352H501.566ZM536.969 283.605V284.818C536.969 286.764 536.705 288.51 536.178 290.057C535.65 291.604 534.906 292.922 533.945 294.012C532.984 295.09 531.836 295.916 530.5 296.49C529.176 297.064 527.705 297.352 526.088 297.352C524.482 297.352 523.012 297.064 521.676 296.49C520.352 295.916 519.203 295.09 518.23 294.012C517.258 292.922 516.502 291.604 515.963 290.057C515.436 288.51 515.172 286.764 515.172 284.818V283.605C515.172 281.648 515.436 279.902 515.963 278.367C516.49 276.82 517.234 275.502 518.195 274.412C519.168 273.322 520.316 272.49 521.641 271.916C522.977 271.342 524.447 271.055 526.053 271.055C527.67 271.055 529.141 271.342 530.465 271.916C531.801 272.49 532.949 273.322 533.91 274.412C534.883 275.502 535.633 276.82 536.16 278.367C536.699 279.902 536.969 281.648 536.969 283.605ZM531.643 284.818V283.57C531.643 282.211 531.52 281.016 531.273 279.984C531.027 278.953 530.664 278.086 530.184 277.383C529.703 276.68 529.117 276.152 528.426 275.801C527.734 275.438 526.943 275.256 526.053 275.256C525.162 275.256 524.371 275.438 523.68 275.801C523 276.152 522.42 276.68 521.939 277.383C521.471 278.086 521.113 278.953 520.867 279.984C520.621 281.016 520.498 282.211 520.498 283.57V284.818C520.498 286.166 520.621 287.361 520.867 288.404C521.113 289.436 521.477 290.309 521.957 291.023C522.438 291.727 523.023 292.26 523.715 292.623C524.406 292.986 525.197 293.168 526.088 293.168C526.979 293.168 527.77 292.986 528.461 292.623C529.152 292.26 529.732 291.727 530.201 291.023C530.67 290.309 531.027 289.436 531.273 288.404C531.52 287.361 531.643 286.166 531.643 284.818ZM551.014 271.406V297H545.758V271.406H551.014ZM558.889 271.406V275.537H538.006V271.406H558.889ZM582.426 283.605V284.818C582.426 286.764 582.162 288.51 581.635 290.057C581.107 291.604 580.363 292.922 579.402 294.012C578.441 295.09 577.293 295.916 575.957 296.49C574.633 297.064 573.162 297.352 571.545 297.352C569.939 297.352 568.469 297.064 567.133 296.49C565.809 295.916 564.66 295.09 563.688 294.012C562.715 292.922 561.959 291.604 561.42 290.057C560.893 288.51 560.629 286.764 560.629 284.818V283.605C560.629 281.648 560.893 279.902 561.42 278.367C561.947 276.82 562.691 275.502 563.652 274.412C564.625 273.322 565.773 272.49 567.098 271.916C568.434 271.342 569.904 271.055 571.51 271.055C573.127 271.055 574.598 271.342 575.922 271.916C577.258 272.49 578.406 273.322 579.367 274.412C580.34 275.502 581.09 276.82 581.617 278.367C582.156 279.902 582.426 281.648 582.426 283.605ZM577.1 284.818V283.57C577.1 282.211 576.977 281.016 576.73 279.984C576.484 278.953 576.121 278.086 575.641 277.383C575.16 276.68 574.574 276.152 573.883 275.801C573.191 275.438 572.4 275.256 571.51 275.256C570.619 275.256 569.828 275.438 569.137 275.801C568.457 276.152 567.877 276.68 567.396 277.383C566.928 278.086 566.57 278.953 566.324 279.984C566.078 281.016 565.955 282.211 565.955 283.57V284.818C565.955 286.166 566.078 287.361 566.324 288.404C566.57 289.436 566.934 290.309 567.414 291.023C567.895 291.727 568.48 292.26 569.172 292.623C569.863 292.986 570.654 293.168 571.545 293.168C572.436 293.168 573.227 292.986 573.918 292.623C574.609 292.26 575.189 291.727 575.658 291.023C576.127 290.309 576.484 289.436 576.73 288.404C576.977 287.361 577.1 286.166 577.1 284.818ZM230.16 323.83V327.943H216.801V323.83H230.16ZM218.365 313.406V339H213.092V313.406H218.365ZM233.922 313.406V339H228.666V313.406H233.922ZM259.533 325.605V326.818C259.533 328.764 259.27 330.51 258.742 332.057C258.215 333.604 257.471 334.922 256.51 336.012C255.549 337.09 254.4 337.916 253.064 338.49C251.74 339.064 250.27 339.352 248.652 339.352C247.047 339.352 245.576 339.064 244.24 338.49C242.916 337.916 241.768 337.09 240.795 336.012C239.822 334.922 239.066 333.604 238.527 332.057C238 330.51 237.736 328.764 237.736 326.818V325.605C237.736 323.648 238 321.902 238.527 320.367C239.055 318.82 239.799 317.502 240.76 316.412C241.732 315.322 242.881 314.49 244.205 313.916C245.541 313.342 247.012 313.055 248.617 313.055C250.234 313.055 251.705 313.342 253.029 313.916C254.365 314.49 255.514 315.322 256.475 316.412C257.447 317.502 258.197 318.82 258.725 320.367C259.264 321.902 259.533 323.648 259.533 325.605ZM254.207 326.818V325.57C254.207 324.211 254.084 323.016 253.838 321.984C253.592 320.953 253.229 320.086 252.748 319.383C252.268 318.68 251.682 318.152 250.99 317.801C250.299 317.438 249.508 317.256 248.617 317.256C247.727 317.256 246.936 317.438 246.244 317.801C245.564 318.152 244.984 318.68 244.504 319.383C244.035 320.086 243.678 320.953 243.432 321.984C243.186 323.016 243.062 324.211 243.062 325.57V326.818C243.062 328.166 243.186 329.361 243.432 330.404C243.678 331.436 244.041 332.309 244.521 333.023C245.002 333.727 245.588 334.26 246.279 334.623C246.971 334.986 247.762 335.168 248.652 335.168C249.543 335.168 250.334 334.986 251.025 334.623C251.717 334.26 252.297 333.727 252.766 333.023C253.234 332.309 253.592 331.436 253.838 330.404C254.084 329.361 254.207 328.166 254.207 326.818ZM273.35 327.768H266.775L266.74 324.146H272.26C273.232 324.146 274.029 324.023 274.65 323.777C275.271 323.52 275.734 323.15 276.039 322.67C276.355 322.178 276.514 321.58 276.514 320.877C276.514 320.08 276.361 319.436 276.057 318.943C275.764 318.451 275.301 318.094 274.668 317.871C274.047 317.648 273.244 317.537 272.26 317.537H268.604V339H263.33V313.406H272.26C273.748 313.406 275.078 313.547 276.25 313.828C277.434 314.109 278.436 314.537 279.256 315.111C280.076 315.686 280.703 316.412 281.137 317.291C281.57 318.158 281.787 319.189 281.787 320.385C281.787 321.439 281.547 322.412 281.066 323.303C280.598 324.193 279.854 324.92 278.834 325.482C277.826 326.045 276.508 326.355 274.879 326.414L273.35 327.768ZM273.121 339H265.334L267.391 334.887H273.121C274.047 334.887 274.803 334.74 275.389 334.447C275.975 334.143 276.408 333.732 276.689 333.217C276.971 332.701 277.111 332.109 277.111 331.441C277.111 330.691 276.982 330.041 276.725 329.49C276.479 328.939 276.08 328.518 275.529 328.225C274.979 327.92 274.252 327.768 273.35 327.768H268.27L268.305 324.146H274.633L275.846 325.57C277.404 325.547 278.658 325.822 279.607 326.396C280.568 326.959 281.266 327.691 281.699 328.594C282.145 329.496 282.367 330.463 282.367 331.494C282.367 333.135 282.01 334.518 281.295 335.643C280.58 336.756 279.531 337.594 278.148 338.156C276.777 338.719 275.102 339 273.121 339ZM307.346 325.605V326.818C307.346 328.764 307.082 330.51 306.555 332.057C306.027 333.604 305.283 334.922 304.322 336.012C303.361 337.09 302.213 337.916 300.877 338.49C299.553 339.064 298.082 339.352 296.465 339.352C294.859 339.352 293.389 339.064 292.053 338.49C290.729 337.916 289.58 337.09 288.607 336.012C287.635 334.922 286.879 333.604 286.34 332.057C285.812 330.51 285.549 328.764 285.549 326.818V325.605C285.549 323.648 285.812 321.902 286.34 320.367C286.867 318.82 287.611 317.502 288.572 316.412C289.545 315.322 290.693 314.49 292.018 313.916C293.354 313.342 294.824 313.055 296.43 313.055C298.047 313.055 299.518 313.342 300.842 313.916C302.178 314.49 303.326 315.322 304.287 316.412C305.26 317.502 306.01 318.82 306.537 320.367C307.076 321.902 307.346 323.648 307.346 325.605ZM302.02 326.818V325.57C302.02 324.211 301.896 323.016 301.65 321.984C301.404 320.953 301.041 320.086 300.561 319.383C300.08 318.68 299.494 318.152 298.803 317.801C298.111 317.438 297.32 317.256 296.43 317.256C295.539 317.256 294.748 317.438 294.057 317.801C293.377 318.152 292.797 318.68 292.316 319.383C291.848 320.086 291.49 320.953 291.244 321.984C290.998 323.016 290.875 324.211 290.875 325.57V326.818C290.875 328.166 290.998 329.361 291.244 330.404C291.49 331.436 291.854 332.309 292.334 333.023C292.814 333.727 293.4 334.26 294.092 334.623C294.783 334.986 295.574 335.168 296.465 335.168C297.355 335.168 298.146 334.986 298.838 334.623C299.529 334.26 300.109 333.727 300.578 333.023C301.047 332.309 301.404 331.436 301.65 330.404C301.896 329.361 302.02 328.166 302.02 326.818ZM316.223 330.703L326.506 313.406H331.779V339H326.506V321.703L316.223 339H310.949V313.406H316.223V330.703ZM323.922 306.691H327.525C327.525 307.699 327.273 308.596 326.77 309.381C326.277 310.154 325.574 310.764 324.66 311.209C323.746 311.643 322.668 311.859 321.426 311.859C319.539 311.859 318.045 311.379 316.943 310.418C315.854 309.457 315.309 308.215 315.309 306.691H318.895C318.895 307.301 319.082 307.846 319.457 308.326C319.844 308.807 320.5 309.047 321.426 309.047C322.34 309.047 322.984 308.807 323.359 308.326C323.734 307.846 323.922 307.301 323.922 306.691ZM345.262 313.406H350.553V334.887H357.689V313.406H362.963V334.887H370.029V313.406H375.285V339H345.262V313.406ZM385.094 313.406V339H379.82V313.406H385.094ZM400.176 313.406L390.367 328.436H383.916L383.248 323.742H387.555L393.777 313.406H400.176ZM394.744 339L387.572 327.557L391.229 323.795L401.002 339H394.744ZM423.537 325.605V326.818C423.537 328.764 423.273 330.51 422.746 332.057C422.219 333.604 421.475 334.922 420.514 336.012C419.553 337.09 418.404 337.916 417.068 338.49C415.744 339.064 414.273 339.352 412.656 339.352C411.051 339.352 409.58 339.064 408.244 338.49C406.92 337.916 405.771 337.09 404.799 336.012C403.826 334.922 403.07 333.604 402.531 332.057C402.004 330.51 401.74 328.764 401.74 326.818V325.605C401.74 323.648 402.004 321.902 402.531 320.367C403.059 318.82 403.803 317.502 404.764 316.412C405.736 315.322 406.885 314.49 408.209 313.916C409.545 313.342 411.016 313.055 412.621 313.055C414.238 313.055 415.709 313.342 417.033 313.916C418.369 314.49 419.518 315.322 420.479 316.412C421.451 317.502 422.201 318.82 422.729 320.367C423.268 321.902 423.537 323.648 423.537 325.605ZM418.211 326.818V325.57C418.211 324.211 418.088 323.016 417.842 321.984C417.596 320.953 417.232 320.086 416.752 319.383C416.271 318.68 415.686 318.152 414.994 317.801C414.303 317.438 413.512 317.256 412.621 317.256C411.73 317.256 410.939 317.438 410.248 317.801C409.568 318.152 408.988 318.68 408.508 319.383C408.039 320.086 407.682 320.953 407.436 321.984C407.189 323.016 407.066 324.211 407.066 325.57V326.818C407.066 328.166 407.189 329.361 407.436 330.404C407.682 331.436 408.045 332.309 408.525 333.023C409.006 333.727 409.592 334.26 410.283 334.623C410.975 334.986 411.766 335.168 412.656 335.168C413.547 335.168 414.338 334.986 415.029 334.623C415.721 334.26 416.301 333.727 416.77 333.023C417.238 332.309 417.596 331.436 417.842 330.404C418.088 329.361 418.211 328.166 418.211 326.818ZM443.84 313.406V317.537H431.113V313.406H443.84ZM447.602 313.406V339H442.328V313.406H447.602ZM430.445 313.406H435.701L435.051 326.256C434.957 328.178 434.775 329.848 434.506 331.266C434.248 332.684 433.896 333.891 433.451 334.887C433.006 335.871 432.455 336.668 431.799 337.277C431.154 337.875 430.393 338.314 429.514 338.596C428.635 338.865 427.633 339 426.508 339H425.207V334.887L425.875 334.834C426.449 334.775 426.953 334.623 427.387 334.377C427.82 334.131 428.189 333.762 428.494 333.27C428.811 332.777 429.068 332.15 429.268 331.389C429.479 330.615 429.643 329.672 429.76 328.559C429.889 327.445 429.977 326.145 430.023 324.656L430.445 313.406ZM455.67 322.74H461.646C463.65 322.74 465.379 323.074 466.832 323.742C468.297 324.41 469.416 325.348 470.189 326.555C470.975 327.762 471.367 329.168 471.367 330.773C471.367 331.992 471.145 333.105 470.699 334.113C470.254 335.109 469.609 335.977 468.766 336.715C467.922 337.441 466.902 338.004 465.707 338.402C464.512 338.801 463.158 339 461.646 339H452.225V313.406H457.516V334.887H461.646C462.643 334.887 463.469 334.699 464.125 334.324C464.793 333.949 465.291 333.451 465.619 332.83C465.947 332.197 466.111 331.5 466.111 330.738C466.111 330.012 465.947 329.355 465.619 328.77C465.291 328.172 464.793 327.703 464.125 327.363C463.469 327.023 462.643 326.854 461.646 326.854H455.67V322.74ZM478.891 313.406V339H473.635V313.406H478.891Z" fill="white"/>
<path d="M429.333 229.583H262.667C259.25 229.583 256.417 226.75 256.417 223.333C256.417 219.917 259.25 217.083 262.667 217.083H429.333C432.75 217.083 435.583 219.917 435.583 223.333C435.583 226.75 432.75 229.583 429.333 229.583Z" fill="white"/>
<path d="M271.083 229.667C269.417 229.667 267.833 229 266.667 227.833C265.5 226.667 264.833 225.084 264.833 223.417L264.75 98.917C264.75 91.3337 268.583 84.1668 274.916 79.9168L308.25 57.6669C316 52.5003 326 52.5003 333.667 57.6669L367 79.9168C373.417 84.1668 377.167 91.2503 377.167 98.917L377.25 223.25C377.25 226.667 374.5 229.5 371 229.5L271.083 229.667ZM321 66.2505C319 66.2505 317 66.8335 315.25 68.0002L281.917 90.2505C279 92.1672 277.25 95.417 277.25 98.917L277.333 217.167L364.833 217L364.75 98.917C364.75 95.417 363 92.1668 360.167 90.3334L326.833 68.0836C325.083 66.8336 323 66.2505 321 66.2505Z" fill="white"/>
<path d="M412.5 229.667C409.083 229.667 406.25 226.833 406.25 223.417V190C406.25 186.583 409.083 183.75 412.5 183.75C415.917 183.75 418.75 186.583 418.75 190V223.417C418.75 226.833 416 229.667 412.5 229.667Z" fill="white"/>
<path d="M412.667 196.25C400 196.25 389.75 186 389.75 173.333V156.667C389.75 144 400 133.75 412.667 133.75C425.333 133.75 435.583 144 435.583 156.667V173.333C435.583 186 425.333 196.25 412.667 196.25ZM412.667 146.25C406.917 146.25 402.25 150.917 402.25 156.667V173.333C402.25 179.083 406.917 183.75 412.667 183.75C418.417 183.75 423.083 179.083 423.083 173.333V156.667C423.083 150.917 418.417 146.25 412.667 146.25Z" fill="white"/>
<path d="M371 162.917H271C267.583 162.917 264.75 160.083 264.75 156.667C264.75 153.25 267.583 150.417 271 150.417H371C374.417 150.417 377.25 153.25 377.25 156.667C377.25 160.083 374.417 162.917 371 162.917Z" fill="white"/>
<path d="M321 229.583C317.583 229.583 314.75 226.75 314.75 223.333V192.083C314.75 188.667 317.583 185.833 321 185.833C324.417 185.833 327.25 188.667 327.25 192.083V223.333C327.25 226.75 324.417 229.583 321 229.583Z" fill="white"/>
<path d="M321 133.75C310.667 133.75 302.25 125.333 302.25 115C302.25 104.667 310.667 96.25 321 96.25C331.333 96.25 339.75 104.667 339.75 115C339.75 125.333 331.333 133.75 321 133.75ZM321 108.75C317.583 108.75 314.75 111.583 314.75 115C314.75 118.417 317.583 121.25 321 121.25C324.417 121.25 327.25 118.417 327.25 115C327.25 111.583 324.417 108.75 321 108.75Z" fill="white"/>
</svg>
