<svg width="20" height="20" viewBox="0 0 20 20" fill="none"
    xmlns="http://www.w3.org/2000/svg">
    <path fill-rule="evenodd" clip-rule="evenodd" d="M19.6337 17.8661L15.7512 13.9836C17.0803 12.2077 17.6872 9.99425 17.4498 7.78882C17.2124 5.5834 16.1484 3.54977 14.4719 2.09732C12.7954 0.644861 10.631 -0.118573 8.41422 -0.039315C6.19748 0.0399428 4.09305 0.95601 2.52458 2.52449C0.956101 4.09296 0.0400343 6.19739 -0.0392234 8.41413C-0.118481 10.6309 0.644952 12.7953 2.09741 14.4718C3.54986 16.1483 5.58349 17.2123 7.78892 17.4497C9.99434 17.6871 12.2078 17.0802 13.9837 15.7511L17.8662 19.6336C18.102 19.8613 18.4177 19.9873 18.7455 19.9845C19.0732 19.9816 19.3868 19.8502 19.6185 19.6184C19.8503 19.3867 19.9817 19.0731 19.9846 18.7454C19.9874 18.4177 19.8614 18.1019 19.6337 17.8661ZM8.74999 14.9999C7.51386 14.9999 6.30549 14.6333 5.27768 13.9466C4.24988 13.2598 3.44879 12.2837 2.97574 11.1417C2.50269 9.99964 2.37892 8.74297 2.62008 7.53059C2.86124 6.31821 3.45649 5.20456 4.33057 4.33048C5.20465 3.4564 6.3183 2.86114 7.53068 2.61999C8.74306 2.37883 9.99973 2.5026 11.1418 2.97565C12.2838 3.4487 13.2599 4.24978 13.9467 5.27759C14.6334 6.3054 15 7.51377 15 8.7499C15 10.4075 14.3415 11.9972 13.1694 13.1693C11.9973 14.3414 10.4076 14.9999 8.74999 14.9999Z" fill="#8E97AC"/>
</svg>
