<?xml version="1.0" encoding="utf-8"?>
<!-- Generator: Adobe Illustrator 23.1.0, SVG Export Plug-In . SVG Version: 6.00 Build 0)  -->
<svg version="1.1" id="Слой_1"
	xmlns="http://www.w3.org/2000/svg"
	xmlns:xlink="http://www.w3.org/1999/xlink" x="0px" y="0px" viewBox="0 0 680 500" style="enable-background:new 0 0 680 500;" xml:space="preserve">
	<style type="text/css">
	.st0{fill:none;stroke:#000000;stroke-miterlimit:10;}
	</style>
	<g>
		<path class="st0" d="M90.1,131.2l-3.2,8.6c-0.2,0.5-0.5,0.8-0.9,1.1l-7,3.7c-0.8,0.4-1.2,1.2-1,2.1l1.4,8.9c0.1,0.5,0,1-0.3,1.4
		l-6.4,9.9c-0.2,0.4-0.6,0.6-1,0.8l-7.6,2.7c-0.5,0.2-0.8,0.5-1.1,0.9l-3.2,5.8c-0.8,1.4-2.7,1.4-3.5,0l-3-5.4c-0.3-0.6-1-1-1.7-1
		h-6c-0.9,0-1.8-0.6-2-1.6c-0.5-2.2-1.5-5.9-1.5-9.6c0-11.1-3.6-14.3-12.5-15.9c-7.1-1.6-8.9-4.8-3.6-9.5c7.1-6.3-3.3-11-8.7-15.7
		c-0.1-0.1-0.2-0.2-0.3-0.4c-3.4-4.7-1.6-10.9-3.4-14.1c-1.8-4.7,10.4-11,17.6-17.2c0.1-0.1,0.3-0.3,0.4-0.4
		c5-7.7,1.8-13.8,3.3-18.5c0.1-0.2,0.2-0.4,0.3-0.6c2.3-2.7,14.7-1.6,18.9-4.1c0.4-0.2,0.7-0.5,0.8-0.9c1.4-3.4,2.7-14.4,3.2-18.5
		c0.1-0.9,0.8-1.7,1.8-1.8c3.9-0.4,13.9-1.4,19.6-1.4c0.2,0,0.3,0,0.5,0c6.9-1.6,8.7-6.3,10.4-14c0-0.1,0-0.3,0-0.4
		c0.2-7.8,10.8-14.1,21.4-15.7c1.4,0,2.8-1,4.2-1.4c0.7-0.2,1.4,0,1.9,0.4l5.2,4.7c0.7,0.6,0.9,1.7,0.4,2.5l-2.1,3.6
		c-0.4,0.8-0.3,1.7,0.3,2.4l9.2,9.6c0.3,0.3,0.5,0.7,0.5,1.1l1.6,11.5c0.1,0.3,0,0.7-0.1,1l-3.1,8.4c-0.2,0.4-0.2,0.9,0,1.3l2.8,8.6
		c0.3,1-0.2,2.1-1.2,2.5l-6.7,2.4c-0.2,0.1-0.5,0.2-0.7,0.4l-4.7,4.2c-0.2,0.2-0.4,0.4-0.5,0.7l-2.9,6.6c-0.3,0.6-0.2,1.3,0.1,1.9
		l5.7,8.9c0.5,0.8,0.4,1.8-0.2,2.4l-7.7,8.2c-0.1,0.1-0.3,0.3-0.4,0.3l-9.7,5.7c-0.5,0.3-0.8,0.8-0.9,1.3l-1.4,7.3
		c-0.2,0.8-0.8,1.5-1.6,1.6l-6.2,1.1c-0.8,0.2-1.5,0.8-1.6,1.7l-1.5,9.5C90.2,130.9,90.2,131.1,90.1,131.2z"/>
		<path class="st0" d="M674.9,359.4c-5.1-13-27.7-19-28.8-19.7c-0.3-0.2-0.7-0.3-1-0.3h-7.9c-0.6,0-1.2,0.3-1.5,0.7l-3.9,4.7
		c-0.4,0.4-0.9,0.7-1.5,0.7h-4.9c-0.6,0-1.2-0.3-1.6-0.8l-5.9-8.2c-0.7-0.9-1.9-1.1-2.8-0.4c-2.1,1.6-5.8,4.3-7.6,5.6
		c-0.7,0.5-1.5,0.5-2.2,0.1c-4-2.4-12.2-7.8-15.9-10.2c-0.5-0.3-1.2-0.4-1.8-0.2l-8.3,3.1c-0.7,0.3-1.1,0.8-1.3,1.5l-1.4,7.3
		c-0.1,0.5-0.3,0.9-0.7,1.2l-7.8,6.3c-0.7,0.5-1.6,0.6-2.3,0.2l-2.6-1.5c-0.8-0.5-1.1-1.4-0.9-2.3l1.2-4.3c0-0.2,0.1-0.4,0.1-0.5
		v-14.7c0-0.6-0.3-1.3-0.8-1.6c-1.6-1.1-5-3.5-6.7-4.8c-0.6-0.5-0.9-1.2-0.8-2c1.3-7.4,1.9-7.9,6.5-14.5c0.1-0.1,0.2-0.3,0.3-0.5
		l2.9-8.3c0.3-0.8,1-1.4,1.9-1.4h7.9c1,0,1.9-0.8,2-1.8c1.3-10.7,0.9-10,7.1-18.6c0.7-0.9,0.4-2.2-0.5-2.8l-4-2.7
		c-0.7-0.5-1-1.3-0.8-2.1l1.1-5c0.2-0.8-0.1-1.5-0.7-2l-13.9-11.1c-0.8-0.6-1.9-0.6-2.6,0.1l-25.9,23.1c-0.6,0.6-1.5,0.7-2.3,0.3
		l-8.8-4.8c-0.7-0.4-1.5-0.3-2.1,0.1l-5.4,3.9c-1.1,0.8-1.1,2.3-0.1,3.2l9.7,8.1c1,0.8,1,2.4-0.1,3.2l-5.6,4c-0.5,0.4-0.8,1-0.8,1.6
		v6.6c0,0.5-0.2,1-0.5,1.4l-7.5,8.1c-0.3,0.3-0.5,0.7-0.5,1.2l-2.3,24.9c-0.1,1-1,1.8-2,1.8h-14.8c-0.3,0-0.6,0.1-0.9,0.2l-8,3.9
		c-0.6,0.3-1.3,0.3-1.9-0.1l-3.5-2.1c-0.4-0.3-0.9-0.3-1.4-0.2l-13.2,2.8c-0.4,0.1-0.7,0.3-1,0.5l-6.1,5.9c-0.3,0.4-0.6,0.9-0.6,1.5
		c0,0.8,0.2,1.2-1.2-0.2l-2.8-2.5c-0.4-0.3-0.8-0.5-1.3-0.5h-14.5c-0.6,0-1.2-0.3-1.6-0.8l-8.3-11.5c-0.3-0.4-0.8-0.7-1.3-0.8l-7-1.2
		c-0.5-0.1-1,0-1.4,0.3l-11.5,7.5c-0.4,0.3-0.9,0.4-1.4,0.3l-6.4-1.1c-0.8-0.2-1.7,0.3-2.1,1l-1.8,3.3c-0.5,0.9-1.6,1.3-2.6,0.8
		l-4.8-2.1c-0.3-0.1-0.5-0.2-0.8-0.2h-10.5c0.9-0.1,1.6-0.8,1.8-1.7l1.3-8.3c0.1-0.8-0.3-1.6-1-2l-11.1-6.2c-0.8-0.5-1.2-1.4-0.9-2.3
		l2.2-7.3c0.4-1.3-0.6-2.6-1.9-2.6h-9.5c-0.4,0-0.9-0.1-1.2-0.4l-10.9-8.3c-0.3-0.3-0.6-0.6-0.7-1l-2-6.4c-0.3-0.8-1-1.4-1.9-1.4
		h-2.8c-0.5,0-1,0.2-1.4,0.6l-5.2,5.2c-0.6,0.6-1.6,0.8-2.4,0.3l-5.1-2.8c-0.3-0.2-0.6-0.3-1-0.3h-7.8c-0.7,0-1.3-0.4-1.7-0.9
		c-3.8-2.2-6.2-5.6-5.9-9c0.1-0.7,0.3-1.7,0.9-2.7c0.3-0.8,1-1.4,1.9-1.4h6.2c0.5,0,0.9-0.2,1.3-0.5l11.5-9.8
		c0.5-0.4,1.1-0.5,1.7-0.4l4.4,0.9c0.9,0.2,1.7-0.3,2.2-1l2.1-4c0.3-0.7,1-1.1,1.8-1.1h10c0.9,0,1.8-0.7,2-1.6l1.2-5.6
		c0.2-0.8-0.1-1.5-0.8-2l-14.5-10.9c-0.5-0.4-0.8-1-0.8-1.6v-15.6c0-0.5-0.2-1.1-0.6-1.4l-4.9-4.8c-0.6-0.6-1.6-0.7-2.4-0.3l-4.4,2.6
		c-0.7,0.4-1.5,0.3-2.1-0.1l-17.9-12.4c-0.3-0.2-0.7-0.4-1.1-0.4h-20.6l-10.5,5.3c-0.3,0.2-0.6,0.5-0.8,0.8l-4.2,7.5
		c-0.3,0.6-1,1-1.7,1h-1.9c-0.3,0-0.6,0.1-0.9,0.2l-7.5,3.7c-0.8,0.4-1.2,1.2-1.1,2.1l1.4,8.9c0.1,0.8-0.2,1.5-0.9,2l-4.3,2.8
		c-0.8,0.5-1.1,1.7-0.7,2.5l3.4,7c0.5,1,0.1,2.2-0.9,2.7c-11.3,5.6-16.9,8.4-16.9,8.4c0,0,0,0,0,0c-1-0.8-1.9-1.6-2.9-2.4l-12-2.7
		c-0.1,0-0.2,0-0.3-0.1l-15.8-6.7c-0.2-0.1-0.4-0.1-0.6-0.1h-6.2c-0.2,0-0.4,0-0.6-0.1l-14.1-5.9c-0.1,0-0.2-0.1-0.4-0.1l-10.2-1.4
		c-0.5-0.1-0.9-0.3-1.1-0.8l-5.7-10.7c-0.4-0.8-1.5-1-2.2-0.5l-8.5,6.9c-0.3,0.2-0.6,0.3-0.9,0.3h-9.1c-0.8,0-1.4,0.6-1.5,1.4
		c0,0,0,0.1,0,0.1l-1.6,11.2c-0.1,0.6-0.5,1-1,1.2l-11.5,3.4c-0.3,0.1-0.5,0.3-0.7,0.5l-9.8,12.5c-0.8,1-0.1,2.4,1.1,2.4h1.6
		c0.4,0,0.7,0.1,1,0.4l13.8,12.3c0.2,0.2,0.5,0.3,0.8,0.4l9.2,1.4c0.4,0.1,0.8,0.3,1,0.6l6.7,9.9c0.4,0.6,0.3,1.4-0.2,1.8l-8.1,7.9
		c-0.3,0.3-0.4,0.7-0.4,1c-0.1,1.5-0.2,3.8,0,6.6c0.2,3.8,0.8,6.3,0,6.6c-0.3,0.1-0.9,0-2.1-1.4c-0.7-0.5-1.8-0.3-2.3,0.4l-1.4,1.9
		c-0.6,0.8-1.7,0.9-2.4,0.3l-7.4-6c-0.4-0.3-0.9-0.5-1.4-0.3l-4.7,1c-0.8,0.2-1.3,0.9-1.3,1.7v6.1c0,0.9-0.8,1.7-1.7,1.7h-2.9
		c-0.3,0-0.6-0.1-0.9-0.3l-13.6-8.5c-0.4-0.2-0.8-0.3-1.2-0.2l-7.1,1.3c-0.5,0.1-0.9,0.4-1.2,0.8l-2.5,4.4c-0.3,0.6-1,0.9-1.7,0.9
		l-9.1-1.2c-0.6-0.1-1.1,0.1-1.5,0.6l-6.9,7.9c-0.1,0.1-0.2,0.2-0.3,0.4c-0.3,0.4-0.3,0.5-0.4,0.6c-0.2,0.1-0.6-0.1-1.6-1.3
		c-0.4-0.4-0.9-0.7-1.5-0.7H56.5c-0.2,0-0.5,0-0.7-0.1l-11.9-4.2c-0.4-0.1-0.8-0.2-1.2,0l-3.1,0.9c-0.9,0.3-1.4,1-1.4,1.9v5.8
		c0,0.7-0.4,1.4-1,1.7l-2.7,1.6c-0.8,0.5-1.9,0.3-2.5-0.4l-3.2-3.8c-0.5-0.6-1.3-0.8-2.1-0.6l-8.4,2.3c-0.9,0.2-1.5,1-1.5,1.9v6.1
		c0,0.9-0.6,1.7-1.4,1.9l-7.7,2.3c-0.7,0.2-1.2,0.7-1.4,1.4l-1.1,4.2c-0.2,0.9,0.2,1.8,1.1,2.3l9.8,5c0.5,0.3,0.9,0.7,1,1.3l2.8,10.6
		c0.2,0.9,1,1.5,1.9,1.5h4.9c0.8,0,1.5,0.4,1.8,1.1l4.6,9.5l6.7,14.2c0.1,0.2,0.1,0.4,0.2,0.6l1.5,10.1c0.1,0.6,0.5,1.2,1,1.5
		l12.9,6.8c0.5,0.2,1,0.3,1.5,0.1l0,0c-0.5,0.3-0.9,0.8-1.1,1.4l-1.2,5.9c-0.2,0.8,0.1,1.5,0.8,2l12.8,9.4c0.4,0.3,1,0.5,1.5,0.4
		l8-1.2c0.8-0.1,1.7,0.3,2.1,1.1l4,7.8c0.3,0.5,0.7,0.9,1.3,1l10.1,2.4c1,0.2,1.7,1.2,1.5,2.3l-1.1,7.1c-0.2,1,0.5,1.9,1.4,2.2l3.5,1
		l10.5,3.6c0.4,0.1,0.8,0.4,1,0.8l4.2,6.2c0.4,0.6,1,0.9,1.7,0.9H133c1,0,1.8-0.7,2-1.7l1.2-7.1c0.1-0.7-0.1-1.4-0.6-1.8l-1.9-1.7
		c-0.4-0.4-0.7-0.9-0.7-1.5v-10.6c0-0.5-0.2-0.9-0.4-1.3l-2.3-2.9c-0.8-1-0.5-2.4,0.6-3l8.9-4.9c0.1-0.1,0.2-0.1,0.3-0.2l17.3-13.9
		c0.4-0.3,4.5-0.3,5-0.3l13.2,1.4c0.3,0,0.5,0.1,0.7,0.3l8,7.8c0.2,0.2,0.4,0.3,0.7,0.3l10.1,1.4c0.4,0.1,0.8-0.1,1.1-0.4l3.9-4.7
		c0.4-0.5,1.2-0.6,1.7-0.1l3.9,3.5c0.2,0.2,0.4,0.3,0.6,0.3l11.8,1.4c0.4,0,0.7,0.3,0.9,0.6l2.8,5c0.2,0.4,0.6,0.6,1,0.6h7.5
		c0.2,0,0.5-0.1,0.6-0.2l8.6-5.5c0.3-0.2,0.5-0.6,0.5-1v-2.7c0-0.7,0.5-1.2,1.2-1.2h5c0.4,0,0.8-0.2,1-0.5l6.2-8.9
		c0.2-0.3,0.5-0.5,0.8-0.5l12.9-1.3c0.6-0.1,1.1-0.6,1.1-1.2c0,0,0.5-1.8,1.2-1.5l5.3,2.3c0.3,0.1,0.5,0.2,0.8,0.2h10.4
		c1.1,0,2,0.9,2,2v4.7c0,0.6,0.3,1.2,0.8,1.6l7,5.7c0.5,0.4,0.8,1,0.8,1.6v8.8c0,0.6,0.2,1.1,0.7,1.5l8.1,7.2
		c0.4,0.4,0.7,0.9,0.7,1.5v3.2c0,1.1,0.9,2,2,2h7.8c0.3,0,0.6-0.1,0.9-0.2l8.4-4.1c0.4-0.2,0.8-0.2,1.2-0.2l8.3,1.2
		c0.8,0.1,1.6-0.3,2-1l2.1-3.7c0.4-0.7,1.2-1.1,2-1l8,1.1c1,0.1,1.7,1,1.7,2v6c0,0.8,0.5,1.6,1.3,1.9l5.2,1.9
		c0.2,0.1,0.4,0.2,0.6,0.3c0.8,0.2,1.4,1,1.4,1.8v7.3c0,0.8-0.4,1.4-1.1,1.7l-0.9,0.4c-0.8,0.4-1.3,1.3-1.1,2.1l1.2,5.3
		c0.1,0.5,0.4,1,0.9,1.2l13.1,7.5c0.5,0.3,1,0.3,1.5,0.2l8.9-2.6c0.4-0.1,0.8-0.1,1.2,0l11.7,4.2c0.4,0.1,0.8,0.1,1.2,0l12.6-4
		c0.8-0.3,1.3-1,1.3-1.8v-11.6c0-0.9,0.6-1.6,1.4-1.8l19.7-5.6c0.2-0.1,0.4-0.1,0.5-0.3l1.5-1c0.3-0.3,0.7-0.7,0.8-1.2
		c0.1-0.7,1.3,0.1,2.1,0l7.1-1.3c0.1,0,0.2-0.1,0.4-0.1l15.8-5.9c0.2-0.1,0.3-0.1,0.5-0.2l7.3-5.2c0.6-0.5,1.5-0.5,2.2-0.1l6.1,3.6
		c0.3,0.2,0.7,0.3,1,0.3h14.5c0.7,0,1.4,0.4,1.7,1l2.1,3.8c0.4,0.7,1.3,1.1,2.1,1c3.3-0.2,4.8-0.6,5.5-1c0.2-0.1,1.3-0.7,1.5-0.5
		c0,0,0.1,0.3,0.1,0.5l5,16.9c0.1,0.3,0.2,0.5,0.4,0.7l7.8,9.4c0.7,0.9,2.1,1,2.9,0.2l6.8-6.7c0.1-0.1,0.2-0.2,0.3-0.3l12.4-18.4
		c0.2-0.3,0.3-0.6,0.3-0.9l1.6-17.4c0.1-0.7,0.5-1.3,1.1-1.6l10-5.1c0.6-0.3,1.3-0.3,1.9,0l9.6,5.3c0.4,0.2,0.8,0.3,1.3,0.2l8.4-1.3
		c0.7-0.1,1.3-0.6,1.6-1.3l5.4-14.5c0.1-0.2,0.2-0.4,0.4-0.6l14.1-16c0.6-0.7,1.7-0.9,2.5-0.4l12.8,7.4c0.2,0.1,0.4,0.2,0.7,0.2
		l15.3,2.6c1.2,0.2,2,1.5,1.6,2.6l-1.9,5.5c-0.4,1.1,0.3,2.3,1.5,2.6l10.5,2.3c0.6,0.1,1.3,0,1.8-0.5c2.1-1.9,8-7.1,9.8-8.8
		c0.3-0.3,0.6-0.7,0.6-1.2c0.7-4.5,1.9-13.6,1.6-17.9c0-0.3-0.1-0.6-0.3-0.8l-2.6-4.6c-0.4-0.7-0.3-1.5,0.1-2.1l5.9-8.6
		c0.1-0.2,0.3-0.3,0.5-0.5l20.3-15.2c0.5-0.4,0.8-1,0.8-1.6C676.5,364.9,675.7,361.6,674.9,359.4z"/>
	</g>
</svg>
